<?xml version="1.0" ?><!DOCTYPE svg  PUBLIC '-//W3C//DTD SVG 1.1//EN'  'http://www.w3.org/Graphics/SVG/1.1/DTD/svg11.dtd'><svg id="Layer_1" style="enable-background:new 0 0 36.3 30.1;" version="1.1" viewBox="0 0 36.3 30.1" xml:space="preserve" xmlns="http://www.w3.org/2000/svg" xmlns:xlink="http://www.w3.org/1999/xlink"><style type="text/css">
	.st0{fill:none;stroke:#414042;stroke-width:1.25;stroke-linecap:round;stroke-linejoin:round;stroke-miterlimit:10;}
	.st1{fill:none;stroke:#414042;stroke-width:1.1713;stroke-linecap:round;stroke-linejoin:round;stroke-miterlimit:10;}
</style><g><g><path class="st1" d="M1.2,25.8c0,0.5,0.4,0.9,0.9,0.9h11.8c2.1,0,3.7-1.5,3.7-4.6V21c0-2.2-1-3.2-2-3.7c-0.5-0.2-0.5-0.7,0-1    c1.1-0.6,2.1-1.8,2-4.1v-0.3c0-2.5-2-4.5-4.5-4.5h-11c-0.5,0-0.9,0.4-0.9,0.9V25.8z"/><path class="st1" d="M12.1,23.5H5.6l0,0v-4.9l0,0H12c1.1,0,2,0.9,2,2v0.9C14,22.7,13.2,23.5,12.1,23.5z"/><path class="st1" d="M11.6,14.7h-6l0,0v-4l0,0h5.9c1,0,1.8,0.8,1.8,1.8v0.5C13.3,14,12.5,14.7,11.6,14.7z"/></g><g><path class="st1" d="M35,18.4L35,18.4c0-0.4,0-0.3-0.1-0.6c-0.1-0.9-0.4-1.8-0.8-2.5c-1.3-2.5-4-4.3-7-4.2c-4.2,0-7.7,3.5-7.8,7.6    c-0.1,4.5,3.4,8.1,7.9,8.1c3.6,0,6.7-2.4,7.6-5.7l0,0H31c-0.4,0-0.7,0.2-0.8,0.6c-0.2,0.7-1,1.8-3.5,1.8c-3.7,0-3.2-3.6-3.2-3.6    l0-0.4h11.3L35,18.4z"/><path class="st1" d="M23.6,16.9h7h0c0,0,0.5-3.2-3.6-3.2S23.6,16.9,23.6,16.9L23.6,16.9z"/><path class="st1" d="M23.3,9.6h6.6c0.6,0,1.2-0.5,1.2-1.2v0c0-0.6-0.5-1.2-1.2-1.2h-6.6c-0.6,0-1.2,0.5-1.2,1.1v0    C22.1,9.1,22.7,9.6,23.3,9.6z"/></g></g></svg>