<?xml version="1.0" ?><!DOCTYPE svg  PUBLIC '-//W3C//DTD SVG 1.1//EN'  'http://www.w3.org/Graphics/SVG/1.1/DTD/svg11.dtd'><svg id="Layer_1" style="enable-background:new 0 0 37.5 30.2;" version="1.1" viewBox="0 0 37.5 30.2" xml:space="preserve" xmlns="http://www.w3.org/2000/svg" xmlns:xlink="http://www.w3.org/1999/xlink"><style type="text/css">
	.st0{fill:none;stroke:#414042;stroke-width:1.25;stroke-linecap:round;stroke-linejoin:round;stroke-miterlimit:10;}
	.st1{fill:none;stroke:#414042;stroke-width:1.1713;stroke-linecap:round;stroke-linejoin:round;stroke-miterlimit:10;}
</style><g><path class="st0" d="M21.5,1.1C18,0.6,7.5-1.1,7.5,7.6c0,4.7,3.7,6,5.7,6.4c0.9,0.2,1.6,0.8,2,1.6c0.3,0.8,0.3,1.4-0.7,1.7   c-1.6,0.4-9.7,1-9,7.2c1,8.8,21.5,5.3,17.8-3.1c-1.4-3.3-7.8-5.4-3.8-8.2c3.2-2.3,3.3-6.5,0.4-10.1"/><path class="st0" d="M31.3,6.9h4.1c0.3,0,0.5,0.3,0.5,0.6l0,1.4c0,0.3-0.2,0.6-0.5,0.6h-3.7c-0.3,0-0.5,0.3-0.5,0.6l0.1,4.3   c0,0.3-0.2,0.6-0.5,0.6l-1.1,0c-0.3,0-0.5-0.3-0.5-0.6l0-4.3c0-0.3-0.2-0.6-0.5-0.6l-3.6,0c-0.3,0-0.5-0.3-0.5-0.6l0-1.4   c0-0.3,0.2-0.6,0.5-0.6l3.6,0c0.3,0,0.5-0.3,0.5-0.6l0-2.1"/><path class="st0" d="M18.3,7.6c0.6,2.6-0.6,4.7-2.7,4.7s-4.1-2.1-4.7-4.7s0.6-4.7,2.7-4.7S17.8,5,18.3,7.6z"/><path class="st0" d="M15.3,19.7c3.2,0.1,5.5,1.9,5,4c-0.5,2.1-3.5,3.7-6.7,3.6c-3.2-0.1-5.5-1.9-5-4C9.1,21.2,12.1,19.6,15.3,19.7z   "/></g></svg>