<?xml version="1.0" standalone="no"?>
<!DOCTYPE svg PUBLIC "-//W3C//DTD SVG 20010904//EN"
 "http://www.w3.org/TR/2001/REC-SVG-20010904/DTD/svg10.dtd">
<svg version="1.0" xmlns="http://www.w3.org/2000/svg"
 width="700.000000pt" height="700.000000pt" viewBox="0 0 700.000000 700.000000"
 preserveAspectRatio="xMidYMid meet">
<metadata>
Created by potrace 1.11, written by Peter Selinger 2001-2013
</metadata>
<g transform="translate(0.000000,700.000000) scale(0.100000,-0.100000)"
fill="#000000" stroke="none">
<path d="M3160 6804 c-184 -107 -346 -200 -360 -207 -14 -6 -42 -22 -62 -35
-21 -14 -44 -22 -52 -19 -10 4 -13 1 -10 -7 7 -18 -27 -30 -39 -14 -7 10 -8 9
-4 -3 6 -18 -28 -43 -46 -33 -7 4 -9 3 -4 -1 4 -5 -12 -19 -34 -32 -32 -18
-45 -21 -55 -12 -8 6 -12 14 -10 18 3 4 0 13 -5 21 -7 11 -8 8 -6 -10 3 -14
-3 -31 -12 -38 -14 -11 -13 -12 6 -3 28 14 41 -4 13 -19 -11 -6 -20 -8 -20 -4
0 3 -6 2 -13 -4 -12 -10 -74 -22 -124 -25 -13 0 -23 -6 -23 -11 0 -6 -5 -4
-10 4 -5 8 -10 10 -10 4 0 -6 -13 -10 -30 -9 -16 1 -27 -2 -24 -7 3 -4 0 -8
-5 -8 -6 0 -11 5 -11 10 0 6 -5 10 -11 10 -5 0 -7 -4 -4 -10 3 -5 -3 -11 -14
-11 -12 -1 -24 -2 -28 -3 -59 -14 -81 -19 -108 -20 -17 -2 -37 -6 -43 -10 -7
-4 -16 -4 -22 -1 -5 3 -10 1 -10 -6 0 -7 -3 -10 -6 -7 -3 4 -1 15 4 25 9 15 7
19 -8 19 -12 0 -16 -4 -10 -11 5 -6 5 -17 0 -25 -6 -8 -10 -12 -10 -9 0 4 -24
1 -54 -6 -41 -10 -57 -10 -67 -1 -9 8 -10 8 -5 -1 9 -16 1 -16 -25 -3 -14 8
-19 8 -17 -1 2 -6 -3 -14 -9 -16 -7 -3 -13 3 -14 14 -1 13 -3 11 -9 -7 -5 -14
-8 -18 -9 -9 -1 9 -9 23 -18 30 -15 11 -16 11 -5 -1 14 -16 17 -44 3 -36 -5 4
-20 2 -34 -3 -17 -7 -28 -6 -37 2 -10 9 -11 9 -6 0 5 -8 1 -13 -9 -13 -10 0
-14 5 -10 13 4 6 0 4 -9 -7 -8 -10 -22 -16 -31 -13 -8 4 -15 1 -16 -6 0 -7 -4
-3 -9 8 -7 17 -9 17 -9 3 -1 -10 -6 -18 -12 -18 -5 0 -7 6 -3 13 4 6 4 9 -1 5
-4 -4 -15 -2 -24 4 -13 10 -14 10 -4 -2 20 -22 15 -32 -8 -19 -17 8 -20 8 -14
-1 6 -9 0 -11 -23 -8 -17 2 -29 1 -26 -4 3 -4 -1 -8 -10 -8 -9 0 -13 8 -12 25
2 13 -1 22 -6 19 -5 -3 -8 -11 -7 -17 3 -27 -2 -33 -28 -32 -16 1 -32 -2 -38
-6 -5 -4 -23 -9 -40 -11 -31 -3 -54 -29 -55 -60 0 -10 -5 -18 -11 -18 -5 0 -7
-4 -4 -10 9 -14 -8 -12 -25 3 -12 10 -12 9 -2 -4 6 -9 8 -20 4 -24 -4 -5 -2
-5 4 -2 7 4 9 -2 6 -18 -2 -14 -9 -25 -14 -25 -5 0 -7 -4 -3 -9 3 -5 1 -12 -5
-16 -6 -4 -8 -11 -5 -16 4 -5 -3 -9 -13 -9 -15 0 -19 5 -15 20 3 11 3 20 0 20
-2 0 -7 -9 -10 -21 -4 -14 1 -23 16 -29 12 -5 16 -9 9 -9 -7 -1 -10 -6 -7 -11
8 -13 -4 -50 -16 -50 -6 0 -6 7 1 19 10 20 -4 41 -17 27 -4 -3 -1 -6 6 -6 8 0
9 -5 2 -18 -7 -13 -6 -23 2 -32 10 -10 8 -12 -7 -6 -16 5 -17 4 -6 -9 15 -18
-1 -20 -19 -2 -10 10 -11 8 -5 -8 7 -18 6 -19 -9 -6 -15 12 -17 12 -11 -3 5
-12 2 -15 -10 -10 -9 3 -16 2 -16 -3 0 -8 -28 -20 -90 -38 -3 -1 -18 -7 -35
-14 -16 -7 -47 -18 -67 -24 -38 -12 -42 -19 -54 -93 -3 -21 -9 -57 -14 -79 -5
-22 -12 -62 -16 -90 -3 -27 -9 -54 -12 -60 -4 -5 -7 -14 -7 -19 0 -5 -61 -45
-135 -88 -74 -44 -138 -83 -142 -87 -4 -4 -8 -189 -8 -411 -1 -297 -4 -408
-13 -419 -7 -9 -8 -12 -1 -8 8 4 11 -12 11 -53 0 -33 -3 -58 -5 -55 -7 7 -32
-15 -32 -29 0 -6 5 -3 11 7 11 19 29 14 29 -9 0 -8 -4 -12 -10 -9 -5 3 -10 1
-10 -4 0 -6 5 -11 10 -11 6 0 10 -7 10 -15 0 -8 -6 -15 -12 -15 -10 0 -10 -2
-2 -8 7 -4 11 -21 11 -39 -1 -17 -5 -29 -9 -27 -5 3 -8 0 -8 -5 0 -6 5 -11 11
-11 5 0 7 -5 3 -12 -5 -8 -11 -6 -19 5 -10 14 -12 8 -12 -33 1 -37 4 -47 13
-39 17 14 29 -8 15 -25 -6 -7 -7 -17 -3 -21 4 -5 1 -4 -7 0 -11 6 -13 4 -8 -9
4 -10 1 -27 -5 -39 -7 -12 -11 -26 -10 -30 1 -5 -3 -5 -9 -1 -8 4 -9 0 -4 -15
5 -15 2 -21 -9 -21 -9 0 -16 5 -16 11 0 5 4 8 9 5 4 -3 7 14 5 37 -3 37 -2 40
10 24 13 -16 14 -16 20 -1 4 10 2 22 -4 28 -8 8 -9 5 -4 -9 6 -16 4 -18 -6 -8
-7 7 -14 25 -16 40 -3 24 -1 26 10 11 7 -10 17 -13 25 -9 9 6 7 10 -8 14 -15
4 -19 10 -15 24 5 14 3 14 -10 -4 -9 -12 -13 -29 -10 -37 5 -12 2 -15 -12 -10
-15 5 -16 4 -4 -4 19 -14 17 -78 -5 -102 -9 -10 -14 -24 -10 -30 4 -7 0 -10
-10 -8 -27 5 -30 -21 -3 -31 12 -6 17 -10 11 -10 -7 -1 -12 -4 -12 -8 3 -20
-2 -34 -11 -28 -5 3 -7 12 -4 19 3 8 1 17 -5 21 -7 4 -8 0 -4 -11 5 -13 3 -15
-8 -9 -8 5 -3 -3 10 -18 13 -15 20 -31 16 -38 -5 -7 -4 -10 2 -6 6 4 8 -3 5
-18 -2 -14 -9 -25 -14 -25 -5 0 -7 4 -4 8 9 14 -10 33 -27 26 -18 -7 -23 -24
-7 -24 6 0 10 5 10 11 0 5 5 7 11 3 7 -4 6 -11 -5 -22 -12 -13 -19 -14 -28 -4
-7 7 -17 12 -22 12 -6 0 -3 -5 7 -11 9 -6 15 -14 13 -18 -3 -4 4 -8 15 -8 12
-1 17 3 13 9 -5 7 -2 8 6 3 9 -6 11 -4 5 5 -5 8 -4 11 3 7 17 -11 2 -45 -21
-45 -43 -2 -56 -5 -51 -14 3 -5 13 -7 21 -6 9 2 18 -3 20 -10 3 -8 -2 -10 -14
-6 -14 5 -15 4 -3 -4 8 -6 18 -8 22 -6 4 3 8 0 8 -5 0 -6 -9 -11 -20 -11 -24
0 -55 44 -46 65 3 9 2 13 -4 10 -6 -3 -10 -12 -10 -19 0 -14 48 -82 55 -78 15
7 15 -1 1 -23 -15 -22 -23 -50 -25 -82 -1 -7 -8 -10 -16 -7 -8 4 -15 2 -15 -4
0 -6 6 -13 13 -15 9 -4 9 -6 0 -6 -7 -1 -10 -8 -7 -16 4 -8 1 -15 -6 -15 -6 0
-8 -4 -5 -10 8 -12 -22 -70 -37 -70 -6 0 -5 7 5 18 13 15 14 19 1 36 -8 11
-14 15 -14 10 0 -6 5 -15 12 -22 14 -14 -3 -16 -20 -2 -9 7 -9 7 -2 -2 15 -18
12 -32 -5 -18 -19 16 -38 4 -26 -18 15 -30 5 -78 -23 -115 -16 -21 -23 -37
-17 -37 6 0 11 5 11 11 0 5 4 7 10 4 6 -4 4 -17 -5 -36 -11 -20 -13 -35 -6
-47 10 -18 -7 -92 -21 -92 -4 0 -4 8 -1 17 4 11 -1 9 -17 -7 -21 -21 -22 -24
-6 -35 13 -10 14 -18 6 -39 -5 -15 -14 -24 -20 -21 -5 3 -18 1 -27 -4 -16 -9
-15 -10 7 -8 13 1 25 -2 26 -8 0 -5 4 -19 9 -29 6 -14 2 -24 -15 -38 -12 -10
-20 -21 -17 -25 4 -3 15 5 26 18 11 13 23 21 26 17 12 -12 14 -58 3 -58 -6 0
-3 -9 7 -20 10 -11 13 -20 7 -20 -6 0 -18 10 -26 22 -9 12 -18 19 -21 16 -8
-8 57 -68 67 -62 4 3 8 0 8 -5 0 -16 -26 -13 -40 4 -7 9 -15 13 -17 11 -3 -2
5 -14 16 -25 20 -20 21 -21 40 -2 18 18 18 18 31 -2 10 -16 10 -19 -2 -15 -8
3 -25 0 -39 -8 -24 -13 -24 -13 9 -10 18 2 35 0 38 -5 3 -5 -1 -10 -8 -11 -7
0 -17 -2 -23 -3 -5 -2 -17 -3 -25 -4 -13 -1 -13 -3 -1 -10 8 -5 21 -6 30 -3
14 5 14 3 2 -11 -9 -11 -10 -17 -2 -17 10 0 15 13 12 33 0 4 6 7 14 7 8 0 14
-3 13 -7 -1 -5 3 -18 10 -29 11 -21 7 -34 -9 -34 -5 0 -6 6 -3 14 3 8 1 17 -5
21 -7 4 -8 0 -5 -10 4 -10 2 -15 -6 -13 -6 2 -18 -6 -26 -18 -12 -18 -12 -21
0 -21 8 0 12 6 9 13 -3 8 2 11 14 9 10 -2 22 -4 26 -4 5 -1 5 -7 1 -13 -4 -7
5 -2 19 11 27 24 35 37 18 26 -5 -3 -13 0 -17 6 -5 8 -2 10 7 5 8 -4 5 0 -5 8
-14 11 -15 16 -6 16 9 0 8 5 -6 16 -18 14 -18 15 4 4 22 -11 23 -10 13 9 -7
12 -17 18 -26 15 -8 -4 -15 -1 -15 5 0 6 8 11 17 11 18 0 8 15 -10 15 -7 1
-11 6 -10 13 2 7 -2 12 -9 12 -6 0 -8 3 -5 7 4 3 0 15 -10 25 -9 11 -11 18 -5
18 7 0 12 -4 12 -9 0 -4 12 -21 28 -37 15 -16 38 -45 52 -64 13 -19 29 -38 35
-42 7 -5 7 -8 -1 -8 -5 0 -10 -12 -10 -27 1 -19 -4 -28 -15 -28 -8 0 -31 -14
-50 -30 -19 -17 -30 -27 -25 -23 5 4 19 0 32 -9 15 -9 24 -11 24 -4 0 6 -7 11
-15 11 -20 0 -19 14 2 31 15 12 16 12 10 -4 -4 -10 -3 -16 1 -14 4 3 13 -1 20
-9 7 -8 9 -14 4 -14 -5 0 -10 -15 -10 -32 0 -18 -3 -51 -6 -73 -14 -80 -14
-99 0 -113 8 -7 14 -11 14 -8 0 3 9 -2 19 -11 11 -9 18 -20 15 -25 -3 -4 1 -8
8 -8 21 0 144 -108 140 -123 -2 -6 0 -9 3 -5 4 4 15 3 25 -2 15 -8 18 -29 19
-177 2 -185 -1 -178 71 -215 14 -7 64 -37 112 -65 48 -29 90 -53 93 -53 15 0
74 -48 68 -54 -4 -4 0 -4 9 -1 8 3 22 -1 31 -9 8 -8 17 -13 19 -10 3 2 11 -2
18 -11 7 -8 19 -15 26 -15 8 0 14 -4 14 -10 0 -5 4 -10 9 -10 5 0 29 -12 55
-26 35 -19 44 -29 37 -38 -8 -9 -7 -13 4 -13 8 0 12 4 9 9 -10 16 16 8 36 -12
11 -11 20 -18 20 -15 0 5 24 -7 128 -67 23 -14 39 -28 35 -31 -3 -4 3 -7 15
-7 12 0 31 -8 42 -18 11 -9 24 -17 29 -17 4 0 15 -8 25 -18 10 -9 22 -14 28
-11 6 4 8 2 5 -3 -4 -6 1 -17 10 -24 15 -12 16 -12 9 5 -7 19 -6 19 12 2 26
-22 18 -52 -18 -68 -25 -11 -27 -13 -12 -25 15 -12 15 -13 -3 -10 -11 1 -21
-2 -22 -7 -1 -5 -7 -13 -15 -18 -10 -8 -10 -9 2 -5 8 2 14 9 13 15 -3 12 35
10 55 -2 7 -4 12 -16 12 -27 0 -11 -5 -17 -10 -14 -6 3 -10 1 -10 -5 0 -7 7
-9 16 -6 9 3 17 6 20 6 2 0 1 6 -2 13 -3 8 2 14 11 14 9 0 14 -6 11 -14 -4 -9
-1 -11 5 -7 7 4 9 0 5 -14 -6 -17 -3 -21 14 -19 11 1 20 6 20 11 0 13 14 -2
16 -18 1 -9 -7 -13 -25 -12 -32 2 -53 14 -46 27 4 5 2 9 -4 9 -5 0 -9 -9 -8
-19 0 -11 4 -19 7 -18 14 4 49 -25 44 -37 -3 -7 2 -18 10 -25 8 -7 12 -19 9
-27 -3 -8 0 -14 7 -14 6 0 8 5 4 12 -5 8 -2 9 10 5 10 -4 19 -7 22 -7 2 0 1
-8 -2 -18 -5 -14 -3 -14 10 2 9 11 16 16 16 10 0 -5 4 -3 9 4 7 11 9 11 14 -2
4 -9 -1 -17 -14 -21 -20 -7 -27 -25 -9 -25 6 0 10 5 10 10 0 6 5 10 11 10 5 0
7 -4 4 -10 -3 -5 -1 -10 5 -10 6 0 8 -5 4 -12 -4 -7 -3 -8 4 -4 9 5 9 13 2 27
-11 20 -11 20 32 23 12 0 23 7 26 14 3 11 0 12 -18 2 -18 -10 -21 -9 -15 1 6
8 4 10 -5 4 -9 -6 -11 -4 -5 5 6 9 4 11 -4 5 -7 -4 -5 4 4 19 11 16 13 26 6
26 -6 0 -16 -11 -23 -25 -6 -13 -15 -22 -20 -19 -5 3 -4 12 3 20 6 8 9 14 5
14 -4 0 2 12 11 27 17 26 17 27 0 20 -10 -4 -21 -7 -23 -7 -3 0 -3 -4 0 -9 3
-5 -3 -20 -14 -32 -11 -13 -19 -19 -20 -12 0 6 8 20 18 29 16 17 16 18 -3 11
l-20 -7 20 16 c16 14 17 16 3 11 -16 -6 -23 3 -19 26 0 4 -4 7 -11 7 -6 0 -8
3 -4 7 9 9 56 12 51 3 -2 -3 7 -14 20 -24 15 -11 21 -24 18 -34 -5 -12 -2 -14
12 -8 11 4 16 4 13 0 -4 -3 0 -13 8 -21 13 -14 13 -17 -3 -29 -17 -12 -16 -13
5 -11 12 1 22 5 22 10 0 5 20 -16 44 -48 25 -31 42 -63 39 -71 -3 -8 0 -14 6
-14 6 0 11 5 11 12 0 6 3 9 6 6 3 -4 1 -15 -5 -26 -8 -15 -7 -23 5 -33 13 -11
15 -10 14 2 -5 35 1 41 18 18 28 -36 34 -59 15 -52 -13 5 -14 3 -4 -15 11 -21
32 -31 30 -14 -1 4 -1 14 0 22 1 13 2 13 11 0 6 -9 5 -19 -3 -29 -10 -12 -8
-13 11 -7 20 7 22 5 18 -19 -4 -20 -2 -25 9 -21 8 3 17 0 21 -6 4 -6 3 -8 -3
-5 -6 4 -14 0 -17 -9 -9 -23 -7 -28 7 -17 13 11 47 13 47 3 0 -3 -6 -12 -12
-19 -11 -11 -10 -13 4 -8 21 8 59 -29 51 -49 -3 -9 2 -12 16 -9 15 3 18 0 14
-12 -5 -12 -3 -14 7 -8 8 5 11 4 6 -3 -4 -6 -14 -8 -23 -5 -12 5 -14 3 -7 -8
8 -13 14 -59 7 -59 -4 0 -33 58 -34 67 -1 5 -6 7 -12 5 -6 -2 -4 5 4 15 11 15
9 14 -10 -2 -14 -11 -21 -14 -16 -6 6 10 4 12 -6 6 -11 -7 -11 -5 1 10 12 15
12 17 1 10 -9 -5 -12 -4 -7 3 3 6 18 8 33 6 23 -4 25 -3 14 10 -10 12 -18 13
-33 5 -16 -9 -19 -8 -13 2 6 8 4 10 -5 4 -9 -6 -11 -4 -5 5 6 9 4 11 -5 5 -8
-5 -11 -4 -6 3 7 11 -22 9 -47 -3 -6 -4 -3 1 7 9 13 10 15 16 7 16 -11 0 -11
3 -1 15 10 12 8 14 -8 10 -11 -2 -23 3 -26 10 -3 9 0 12 8 9 7 -3 13 2 13 11
0 10 -6 13 -18 10 -9 -3 -20 -1 -24 5 -3 6 -11 7 -17 4 -7 -5 -8 -2 -3 7 7 12
6 12 -6 0 -11 -10 -11 -15 -1 -18 6 -3 10 -9 7 -13 -3 -5 -12 -7 -21 -3 -12 4
-13 9 -2 27 17 27 16 62 -1 58 -7 -1 -10 2 -5 9 5 8 3 9 -6 4 -9 -5 -11 -4 -6
4 4 6 4 11 -1 10 -21 -4 -24 2 -12 19 13 16 13 16 -5 2 -12 -9 -17 -10 -12 -3
5 9 2 11 -11 7 -15 -6 -15 -4 2 10 14 11 15 14 4 10 -19 -6 -63 48 -51 61 4 5
0 5 -8 0 -12 -7 -13 -6 -2 6 11 12 14 12 21 0 5 -7 11 -9 14 -4 3 5 2 15 -2
22 -6 9 -16 6 -39 -14 -21 -18 -33 -22 -38 -14 -4 7 -3 9 4 5 6 -3 14 -1 18 5
5 8 3 9 -6 4 -9 -5 -11 -4 -6 3 5 8 2 10 -9 6 -10 -4 -13 -13 -10 -25 8 -24
-23 -39 -36 -18 -6 10 -9 11 -9 1 0 -17 27 -27 43 -14 20 16 49 11 41 -7 -3
-9 -7 -23 -8 -30 -2 -8 -9 -17 -16 -19 -8 -3 -10 0 -5 8 5 9 4 11 -4 6 -14 -9
-4 -27 14 -24 14 3 69 -51 60 -60 -3 -3 -11 0 -17 6 -7 7 -17 12 -22 12 -6 0
0 -7 13 -16 17 -13 25 -14 34 -4 9 9 7 15 -7 26 -11 7 -17 16 -14 19 3 3 16
-3 29 -14 20 -16 22 -21 10 -35 -10 -12 -11 -20 -4 -27 8 -8 13 -7 17 0 9 14
36 14 36 0 0 -5 -4 -8 -9 -5 -5 3 -14 -1 -21 -9 -9 -10 -9 -15 -1 -15 6 0 11
5 11 11 0 5 5 7 11 3 8 -4 8 -9 0 -17 -6 -6 -11 -16 -11 -22 0 -5 5 -2 11 8 5
9 14 17 20 17 5 0 2 -11 -6 -24 -12 -18 -13 -26 -4 -32 7 -4 10 -3 6 2 -3 5 3
20 13 33 l18 24 0 -26 c0 -15 -4 -24 -9 -21 -5 3 -9 1 -9 -3 0 -5 9 -14 20
-21 23 -14 16 -43 -8 -35 -15 4 -15 3 -2 -6 11 -8 18 -7 26 4 9 12 14 11 33
-8 18 -18 23 -19 30 -8 5 8 6 21 3 30 -5 14 -4 14 11 2 12 -10 14 -17 7 -26
-6 -7 -8 -19 -4 -28 3 -8 0 -18 -5 -22 -6 -3 -9 -11 -6 -16 4 -5 1 -9 -6 -9
-7 0 -9 -3 -6 -6 9 -9 38 16 31 27 -3 5 -1 9 5 9 22 0 20 -20 -5 -39 -15 -12
-22 -21 -17 -21 5 0 14 5 20 11 7 7 15 2 28 -17 17 -26 17 -27 -1 -20 -15 5
-16 4 -7 -5 6 -6 16 -8 22 -4 8 4 4 17 -11 38 -19 27 -20 30 -4 24 10 -4 24
-2 32 4 10 8 13 6 11 -10 -1 -15 -6 -20 -16 -16 -10 4 -9 -1 5 -16 13 -16 15
-23 7 -26 -7 -3 -13 -9 -13 -15 0 -6 6 -6 15 2 12 10 16 8 23 -10 8 -20 9 -21
15 -6 7 17 27 13 27 -5 0 -6 -4 -7 -10 -4 -5 3 -10 1 -10 -5 0 -8 7 -9 17 -5
30 11 35 11 41 -4 2 -8 0 -11 -5 -8 -5 3 -15 1 -23 -4 -13 -8 -13 -10 0 -19
23 -15 45 -7 43 16 -1 13 4 21 13 21 8 0 13 -6 10 -13 -3 -8 -1 -16 4 -19 6
-4 10 -11 10 -16 0 -6 -4 -8 -9 -5 -14 9 -41 -4 -41 -19 0 -20 14 -25 30 -13
12 8 11 9 -3 4 -12 -4 -17 -2 -15 6 8 23 26 19 48 -12 12 -16 17 -30 11 -30
-6 0 -11 -4 -11 -9 0 -8 21 -8 40 -1 3 1 8 2 12 1 3 0 5 11 3 25 -1 13 2 27 6
30 11 6 69 -27 69 -40 0 -5 -8 -2 -18 6 -31 27 -39 28 -37 5 4 -37 5 -38 15
-32 6 3 10 1 10 -6 0 -7 3 -9 7 -5 5 4 -1 14 -11 22 -11 7 -16 17 -12 21 10
10 46 -34 42 -50 -1 -7 -1 -9 1 -4 7 12 23 8 21 -5 -2 -7 4 -13 12 -13 8 0 16
8 18 18 2 11 -2 18 -10 16 -23 -3 -38 1 -38 9 0 5 18 9 40 9 33 0 38 -3 28
-14 -8 -10 -8 -17 1 -26 10 -9 11 -9 6 3 -4 11 1 16 15 17 11 1 20 -2 20 -8 0
-5 -4 -9 -10 -9 -5 0 -10 -5 -10 -11 0 -8 5 -7 15 1 14 12 15 9 10 -21 -3 -18
-3 -31 0 -28 3 4 7 16 10 28 2 11 7 26 11 33 4 6 3 8 -3 5 -6 -4 -14 0 -17 9
-5 12 -2 15 11 9 10 -4 24 -8 31 -8 14 0 17 -17 3 -17 -5 0 -12 -8 -15 -17 -6
-15 -4 -15 13 1 17 15 23 16 36 6 8 -7 12 -16 9 -21 -3 -5 0 -9 5 -9 18 0 12
18 -14 45 -14 14 -22 25 -18 25 14 -1 46 -29 66 -57 10 -16 17 -20 14 -11 -3
9 -3 19 1 21 4 2 1 2 -5 1 -16 -4 -11 32 6 49 11 10 12 8 6 -10 -5 -17 -2 -23
9 -23 9 0 16 5 16 11 0 5 4 8 10 4 5 -3 8 -11 6 -18 -1 -7 -1 -9 1 -4 3 4 10
4 16 0 7 -3 9 -3 5 2 -4 4 -2 17 4 28 10 19 12 19 23 4 11 -16 13 -16 19 -2 4
11 2 14 -6 9 -7 -5 -8 -3 -3 6 6 9 4 11 -5 5 -8 -5 -11 -4 -7 2 7 11 -32 11
-50 0 -6 -4 -14 -1 -16 5 -4 9 -6 9 -6 -1 -1 -11 -5 -10 -16 5 -15 19 -15 19
-9 -1 5 -16 4 -17 -5 -5 -5 8 -13 11 -18 7 -4 -5 -1 -12 7 -17 8 -6 13 -10 10
-11 -3 0 -15 -2 -27 -5 l-22 -4 20 35 c12 19 18 35 15 35 -3 0 -12 -12 -21
-27 -13 -23 -15 -24 -10 -5 4 13 2 22 -5 22 -6 0 -8 -5 -4 -12 4 -7 3 -8 -4
-4 -8 5 -10 2 -6 -8 3 -9 1 -16 -6 -16 -6 0 -9 4 -6 8 3 5 -1 9 -9 9 -8 0 -15
-4 -15 -9 0 -4 5 -8 11 -8 5 0 7 -5 3 -11 -6 -11 -44 41 -38 52 2 4 17 5 34 4
16 -1 30 0 30 4 0 3 14 7 31 7 24 1 29 -2 24 -15 -3 -9 5 -3 18 14 l24 29 -1
-29 c0 -15 4 -30 11 -32 8 -3 11 7 8 29 -2 18 -1 27 2 21 2 -7 11 -13 18 -13
7 0 15 -7 19 -15 3 -8 11 -14 18 -13 7 2 12 -4 13 -12 0 -8 5 -15 11 -15 18 0
75 -49 84 -72 6 -14 15 -20 24 -17 8 3 20 -4 28 -15 8 -12 18 -18 21 -14 4 3
7 -1 7 -10 0 -10 7 -15 18 -12 47 9 78 19 88 27 7 5 25 10 42 11 16 1 28 5 26
8 -4 7 74 31 90 29 5 -1 12 3 16 10 4 6 17 12 28 13 12 1 22 6 22 12 0 5 4 4
9 -3 4 -8 12 -13 17 -13 5 1 9 -3 9 -8 0 -5 4 -13 9 -18 5 -5 6 -3 2 4 -4 8
-1 13 8 13 8 0 19 -6 23 -14 4 -8 13 -15 18 -16 6 -1 9 -6 7 -12 -1 -5 2 -7 8
-3 13 8 90 -30 108 -53 6 -9 12 -12 12 -8 0 4 15 -2 34 -14 l35 -21 53 28 c29
15 55 31 58 34 6 8 97 60 150 86 19 10 37 20 40 24 12 13 120 68 120 62 0 -5
8 2 18 13 19 24 70 45 57 24 -5 -9 -4 -11 3 -6 7 4 12 13 12 21 0 7 10 17 23
21 12 4 33 15 46 25 24 19 47 17 35 -3 -4 -7 -2 -8 4 -4 6 4 8 14 5 23 -4 11
-3 14 5 9 7 -4 12 -3 12 3 0 11 80 57 93 53 4 -1 10 5 13 13 5 12 9 13 20 4 8
-7 17 -9 21 -5 3 3 1 6 -6 6 -17 0 4 20 51 47 l38 22 11 -21 c10 -18 8 -25
-12 -41 -22 -18 -23 -18 -30 0 -4 10 -4 22 -2 26 3 5 -4 4 -16 -2 -22 -12 -25
-20 -13 -37 9 -14 77 -11 77 4 0 6 6 17 14 24 12 11 13 10 8 -4 -8 -23 2 -23
19 -1 13 16 14 15 10 -10 -3 -15 -1 -27 3 -27 11 0 11 49 0 56 -11 7 -12 24
-1 24 5 0 14 -10 20 -23 6 -12 11 -16 11 -9 1 7 5 10 11 7 5 -3 21 2 35 11 14
9 29 13 33 9 4 -4 1 -10 -5 -12 -7 -3 -13 -9 -13 -15 0 -7 5 -6 14 1 11 10 17
8 25 -6 6 -10 11 -13 11 -6 0 6 -4 15 -10 18 -5 3 -10 10 -10 16 0 5 9 4 19
-3 17 -10 23 -8 42 15 20 27 22 27 45 12 25 -16 25 -15 28 24 1 8 6 16 13 18
11 4 11 -14 -1 -67 -5 -20 -5 -21 2 -5 9 19 9 19 21 0 7 -11 10 -13 8 -5 -2 8
5 23 15 34 18 20 18 20 -2 31 -11 6 -18 14 -14 18 4 3 14 3 23 -2 9 -5 26 -7
39 -5 14 3 21 0 17 -6 -3 -5 -12 -10 -20 -10 -24 0 -25 -29 -2 -40 20 -10 20
-10 5 3 -16 13 -15 15 12 35 29 22 29 22 40 3 13 -26 13 -27 -11 -28 -18 -2
-19 0 -7 15 12 15 11 16 -4 3 -10 -7 -15 -17 -12 -22 9 -14 49 -3 49 14 0 8 3
19 7 22 4 4 5 12 2 19 -2 6 5 12 17 13 17 2 18 -1 9 -13 -9 -10 -9 -14 -1 -14
10 0 15 14 12 34 -1 5 6 5 16 1 10 -4 26 -8 35 -9 20 -3 37 -16 20 -16 -7 0
-12 -5 -12 -12 0 -6 9 -3 20 7 22 20 27 11 8 -15 -7 -9 3 1 22 22 19 21 39 38
44 38 5 0 -1 -11 -14 -25 -13 -14 -21 -25 -17 -25 3 0 16 10 28 23 l22 22 -8
-30 c-3 -16 -3 -26 1 -22 7 7 10 25 16 85 1 7 6 11 12 9 6 -3 9 -11 7 -18 -7
-29 -6 -42 7 -46 6 -3 12 0 12 7 0 6 -4 8 -10 5 -6 -3 -10 -1 -10 4 0 6 5 11
11 11 5 0 7 5 3 11 -4 7 -1 10 7 7 8 -3 13 -13 11 -23 -3 -17 -2 -17 13 -1 24
23 42 20 20 -4 -22 -24 -28 -50 -13 -50 6 0 8 6 5 14 -3 7 4 21 16 31 14 12
22 14 25 7 2 -7 9 -12 15 -12 7 1 1 10 -12 20 -15 13 -18 20 -9 20 8 0 19 -5
26 -12 7 -7 12 -8 12 -4 0 5 12 0 28 -10 19 -13 24 -13 15 -2 -7 8 -10 18 -6
22 4 4 -1 4 -12 0 -18 -7 -18 -6 -6 9 7 9 17 14 22 11 9 -5 13 8 10 32 -1 6 6
11 14 11 8 0 14 -7 13 -15 -2 -7 13 -25 32 -39 l35 -26 -27 26 c-29 27 -27 34
10 31 12 0 22 3 22 8 0 5 4 7 10 3 15 -10 0 -34 -18 -28 -14 5 -15 4 -4 -8 11
-12 15 -11 27 4 7 11 11 26 8 34 -5 13 -3 13 16 2 11 -8 21 -17 21 -21 0 -5 5
-8 10 -8 6 0 5 8 -2 19 -7 11 -16 19 -21 18 -5 -1 -11 3 -13 8 -2 6 7 11 21
11 13 1 24 -1 23 -5 0 -3 0 -13 1 -21 1 -13 2 -13 11 0 5 9 5 19 -2 27 -7 9
-7 13 0 13 6 0 15 -8 21 -17 8 -15 12 -16 23 -4 11 12 11 13 -1 6 -9 -5 -12
-3 -9 5 5 16 46 21 54 8 4 -5 13 0 21 12 12 17 17 19 24 9 4 -7 11 -11 14 -7
4 3 -3 16 -15 28 -18 18 -20 24 -9 32 12 8 11 9 -1 6 -8 -3 -14 -17 -15 -33 0
-16 -5 -30 -12 -32 -8 -3 -10 6 -6 29 3 18 1 30 -3 25 -4 -4 -8 -17 -9 -29 -1
-12 -6 -23 -12 -25 -12 -4 -12 22 0 33 10 11 9 24 -3 24 -5 0 -9 -6 -7 -12 1
-8 -9 -13 -26 -13 -17 0 -35 -8 -43 -19 -10 -14 -14 -16 -14 -5 0 12 -2 12
-10 -1 -8 -13 -10 -13 -10 -1 0 11 -4 9 -15 -5 -13 -16 -14 -16 -9 -1 4 10 1
17 -6 17 -6 0 -9 -4 -6 -8 2 -4 1 -14 -3 -21 -6 -9 -11 -10 -15 -2 -4 6 -2 11
4 11 6 0 8 5 4 11 -4 8 -9 7 -15 -2 -8 -12 -11 -11 -19 1 -7 12 -9 10 -8 -7 2
-14 7 -19 17 -15 14 5 14 4 1 -10 -11 -11 -17 -12 -22 -4 -5 7 -8 6 -8 -4 0
-13 -1 -13 -10 0 -8 12 -10 12 -10 1 0 -11 -3 -11 -17 0 -14 12 -16 12 -8 0 6
-10 4 -12 -5 -6 -9 6 -11 4 -5 -5 5 -8 4 -11 -2 -7 -5 3 -10 0 -10 -7 0 -8 7
-12 16 -9 14 4 14 4 1 -6 -22 -15 -33 -13 -26 5 4 10 2 13 -6 8 -7 -5 -8 -3
-3 6 5 8 4 11 -2 7 -6 -4 -10 1 -9 10 0 9 -6 18 -14 21 -13 4 -13 3 -2 -10 10
-13 10 -18 1 -24 -8 -5 -9 -3 -4 6 5 9 4 11 -4 6 -9 -6 -9 -11 0 -22 6 -8 9
-17 6 -21 -3 -3 -16 11 -28 31 -11 20 -26 36 -31 36 -6 0 -3 -11 5 -24 16 -24
7 -30 -20 -13 -12 8 -17 2 -14 -16 1 -5 -4 -5 -10 -1 -8 5 -10 3 -4 -7 6 -11
5 -12 -5 -2 -11 10 -16 9 -27 -5 -11 -15 -12 -15 -7 -1 3 10 1 20 -5 24 -7 3
-8 0 -5 -9 7 -19 0 -20 -28 -5 -15 8 -19 8 -14 0 4 -6 2 -11 -3 -11 -6 0 -11
7 -11 15 0 8 -5 15 -11 15 -5 0 -8 -4 -4 -9 3 -6 -4 -15 -15 -21 -11 -6 -20
-7 -20 -3 0 4 -5 2 -12 -5 -8 -8 -17 -8 -31 -1 -15 9 -18 8 -12 -2 6 -8 4 -10
-5 -4 -9 6 -11 4 -5 -5 6 -9 4 -11 -6 -6 -8 4 -5 0 5 -8 11 -9 15 -16 9 -16
-6 0 -16 7 -23 15 -7 9 -15 13 -18 11 -2 -3 -14 -1 -25 5 -14 8 -18 8 -13 0 4
-7 1 -9 -7 -5 -8 3 -18 0 -23 -7 -5 -9 -2 -10 9 -6 9 3 19 1 23 -5 5 -7 2 -8
-7 -3 -11 6 -12 5 -1 -6 6 -7 12 -18 12 -24 0 -5 -5 -3 -10 5 -13 21 -50 22
-43 1 4 -11 1 -10 -11 4 -10 11 -14 13 -10 5 7 -12 5 -13 -8 -3 -8 7 -19 9
-23 5 -5 -4 -4 0 0 8 8 13 7 13 -8 1 -14 -11 -20 -11 -34 0 -14 12 -16 12 -8
0 5 -10 4 -12 -4 -7 -6 4 -9 12 -6 17 9 14 -33 5 -48 -11 -10 -10 -9 -12 6 -7
9 4 23 4 31 1 17 -7 14 -36 -4 -42 -7 -3 -10 0 -6 7 4 6 1 11 -6 11 -9 0 -9 3
2 10 9 6 10 10 3 10 -6 0 -15 -5 -19 -11 -4 -8 -9 -7 -15 2 -4 7 -11 10 -16 6
-4 -5 -1 -12 7 -17 9 -6 10 -10 3 -10 -6 0 -14 4 -17 8 -6 10 -36 9 -54 -1 -8
-6 -10 -3 -5 10 5 14 3 16 -7 6 -11 -10 -11 -15 0 -28 7 -8 10 -18 7 -22 -4
-3 -9 2 -13 11 -3 9 -10 16 -16 16 -5 0 -7 -4 -3 -9 3 -5 0 -13 -6 -17 -8 -5
-9 -3 -4 6 6 9 4 11 -6 5 -12 -8 -12 -6 0 8 9 11 10 17 2 17 -10 0 -15 -13
-12 -32 0 -5 -4 -8 -10 -8 -6 0 -9 7 -6 14 4 10 1 13 -9 9 -11 -4 -12 -8 -3
-20 10 -12 7 -13 -22 -9 -19 3 -28 3 -21 0 6 -3 9 -11 6 -16 -4 -6 -2 -8 3 -5
6 4 13 0 17 -8 6 -16 -2 -19 -21 -7 -19 12 -20 47 0 46 9 -1 17 2 17 7 0 12
76 50 84 42 3 -4 6 -1 6 6 0 8 6 11 15 7 44 -18 49 -17 25 5 -16 14 -19 20 -8
16 10 -3 20 -2 23 3 7 11 45 9 45 -3 0 -4 5 -5 10 -2 6 4 8 10 6 14 -3 4 7 8
22 8 42 3 66 8 82 18 12 7 13 6 3 -6 -8 -9 -9 -20 -3 -29 6 -8 10 -12 11 -7 1
4 3 12 4 17 1 6 3 14 4 20 0 5 4 9 9 9 4 -1 9 0 12 1 16 6 48 5 44 -2 -10 -15
9 -8 23 10 13 15 13 15 3 -5 -15 -31 4 -29 25 3 13 20 19 23 31 13 11 -9 14
-8 15 2 0 8 7 1 14 -16 8 -16 15 -28 15 -25 10 39 9 50 -2 44 -7 -4 -10 -3 -5
1 4 5 16 9 27 10 15 1 17 -1 9 -12 -17 -20 -1 -16 34 9 22 15 28 17 18 5 -8
-10 -9 -17 -3 -17 6 0 13 4 17 10 3 5 13 6 23 3 14 -6 15 -4 5 8 -11 13 -9 15
7 14 11 -1 22 -4 26 -8 4 -3 13 0 20 8 8 7 25 12 39 11 14 -2 25 2 25 8 0 6 5
4 10 -4 8 -12 12 -13 19 -2 4 8 11 13 15 13 3 -1 7 -1 9 0 21 6 37 5 37 -3 0
-6 -8 -7 -17 -3 -15 5 -16 4 -5 -7 11 -11 16 -9 31 11 12 16 21 20 25 12 8
-12 27 -15 25 -3 -3 19 2 23 16 12 12 -10 18 -10 30 0 12 10 18 10 29 1 9 -7
17 -8 20 -2 3 5 0 12 -6 15 -7 3 -1 3 15 1 16 -2 27 1 27 8 0 7 4 6 10 -3 9
-13 10 -13 10 0 0 12 2 13 9 1 7 -11 9 -11 14 0 4 10 6 10 6 2 1 -7 5 -13 11
-13 5 0 7 7 3 16 -4 11 0 15 13 14 10 -1 21 -1 24 0 3 1 19 3 35 5 17 1 41 5
54 10 13 4 21 3 18 -2 -3 -5 -1 -15 5 -23 8 -13 9 -12 5 2 -3 9 1 22 9 28 8 7
14 9 14 6 0 -4 8 -3 17 3 13 7 23 5 38 -7 19 -16 19 -16 6 1 -8 9 -12 19 -10
21 2 2 13 9 24 15 15 9 16 11 3 7 -10 -3 -18 -1 -18 4 0 6 4 10 10 10 5 0 7 8
4 17 -5 15 -3 15 11 -2 17 -20 17 -20 10 3 -5 16 -3 22 7 20 14 -3 16 25 3 55
-4 10 -3 17 5 17 6 0 8 -6 5 -12 -4 -7 0 -5 8 4 8 10 17 15 20 11 4 -3 7 -2 8
3 6 48 5 75 -1 79 -5 3 -6 13 -3 23 3 14 11 18 28 15 12 -3 26 1 30 7 5 9 2
10 -13 6 -23 -8 -40 10 -24 26 8 8 18 6 36 -6 33 -21 48 -21 17 0 l-23 17 33
14 c18 7 39 11 46 8 8 -2 12 -1 9 4 -3 5 1 11 9 15 8 3 15 0 15 -6 0 -7 6 -4
13 7 8 10 19 15 25 11 5 -3 12 -2 14 3 1 5 12 11 23 13 11 1 23 7 26 12 4 4
22 9 40 11 27 2 33 7 34 26 1 13 5 42 9 64 17 87 34 182 40 217 5 27 15 42 34
53 15 9 41 24 57 35 17 11 37 23 45 27 8 4 48 27 88 51 l72 43 1 217 c0 119 0
257 -1 305 -1 60 3 94 12 105 7 9 8 13 2 9 -17 -10 -18 275 -1 285 9 6 9 8 0
8 -7 0 -13 4 -13 9 0 6 9 8 20 6 11 -2 20 1 20 7 0 5 -7 7 -15 4 -20 -7 -32
23 -14 35 11 7 11 9 1 9 -15 0 -14 47 1 68 6 7 5 12 -2 12 -6 0 -11 5 -11 11
0 5 5 7 10 4 6 -3 10 -1 10 4 0 6 -4 11 -8 11 -5 0 -7 26 -5 58 5 78 5 82 14
76 4 -2 9 1 11 7 2 7 10 4 18 -7 13 -16 13 -17 -2 -11 -10 3 -20 1 -24 -5 -4
-6 -3 -9 2 -6 11 6 45 -28 36 -37 -4 -3 2 -3 12 1 17 7 17 8 -3 19 -24 12 -18
27 7 18 14 -4 14 -3 3 5 -8 6 -16 20 -18 33 -3 18 -1 20 11 10 19 -16 32 4 16
24 -10 12 -9 21 6 42 15 24 15 26 1 14 -10 -8 -17 -9 -17 -3 0 12 18 25 40 29
8 1 16 6 18 12 2 5 11 7 20 4 14 -6 15 -5 2 9 -13 13 -16 13 -32 -6 -9 -12
-17 -17 -18 -12 0 5 -7 3 -15 -4 -12 -10 -15 -10 -16 1 -2 20 1 42 8 59 3 8 8
24 10 35 2 10 8 22 14 25 5 4 11 16 12 28 0 11 5 18 11 15 5 -4 7 1 3 10 -3 9
0 31 7 48 l14 32 12 -23 c11 -20 10 -22 -4 -17 -10 4 -15 3 -11 -3 3 -6 1 -10
-6 -10 -9 0 -9 -4 1 -15 9 -11 6 -21 -15 -50 -15 -19 -22 -35 -16 -35 6 0 11
4 11 8 0 5 11 22 25 38 17 20 21 30 12 36 -6 4 -8 11 -3 15 4 4 14 -1 22 -11
8 -11 14 -15 14 -10 0 6 -6 16 -12 23 -11 10 -9 12 6 9 12 -2 21 5 27 19 6 17
5 21 -6 17 -8 -3 -11 -12 -8 -20 4 -10 0 -12 -11 -8 -9 3 -16 9 -16 13 0 10
42 46 63 54 16 6 17 9 2 37 -14 27 -14 31 -1 36 14 5 14 8 0 29 -8 13 -11 25
-7 28 9 6 34 -18 27 -27 -2 -3 2 -1 9 5 9 8 8 12 -5 20 -26 14 -23 32 3 19 11
-7 23 -9 27 -6 3 3 0 6 -7 6 -9 0 -9 5 -1 21 8 13 17 18 28 14 14 -5 15 -4 4
7 -11 11 -17 9 -33 -11 -11 -13 -22 -21 -26 -17 -4 3 3 16 15 29 22 23 30 57
14 57 -15 0 -44 -38 -38 -48 8 -14 -4 -43 -15 -36 -5 3 -6 -2 -3 -10 4 -9 1
-16 -6 -16 -7 0 -10 -7 -7 -15 4 -8 2 -17 -4 -21 -17 -10 -19 0 -6 26 7 14 14
27 14 30 4 13 16 48 25 70 5 14 10 26 9 27 0 2 6 18 14 37 8 18 11 37 7 41 -4
4 3 4 15 1 16 -5 25 -2 32 13 9 16 7 21 -8 26 -19 6 -19 7 1 55 11 27 28 51
37 53 14 4 13 5 -2 6 -15 1 -16 5 -7 21 6 11 7 20 3 20 -4 0 -2 4 6 9 14 9 19
22 23 64 1 9 6 17 10 17 4 0 7 3 6 8 -3 16 15 62 22 57 5 -3 12 0 16 6 4 7 3
9 -3 6 -6 -4 -18 4 -27 18 -9 13 -25 32 -35 42 -39 36 -81 96 -74 106 3 5 2 7
-4 4 -10 -6 -43 25 -74 70 -15 23 -15 88 1 78 5 -3 6 4 3 15 -3 11 0 48 6 82
6 35 13 77 16 93 3 17 7 42 10 56 4 23 -5 34 -68 87 -39 33 -83 70 -97 82 -14
12 -40 33 -57 47 l-33 25 -2 170 -3 170 -290 168 c-159 93 -295 172 -300 177
-6 4 -32 19 -58 32 -25 13 -44 28 -40 34 3 6 1 7 -5 3 -11 -7 -76 27 -67 35 2
3 -5 6 -17 6 -12 1 -24 6 -27 10 -3 5 -19 14 -34 21 -15 7 -25 17 -22 22 4 6
-1 7 -11 3 -13 -5 -15 -3 -9 7 5 9 4 11 -4 6 -6 -4 -24 1 -39 11 -15 10 -36
23 -47 30 -11 6 -19 16 -17 23 1 6 -2 9 -7 6 -5 -4 -21 -1 -35 5 -24 11 -31
21 -27 42 1 5 -3 6 -8 3 -13 -9 -34 21 -25 36 14 22 13 37 -4 50 -15 12 -16
11 -3 -4 11 -15 11 -18 0 -18 -12 0 -12 -2 0 -9 10 -6 10 -10 1 -16 -6 -4 -18
1 -25 11 -18 24 -18 31 -2 38 6 3 2 3 -10 0 -14 -3 -23 -1 -23 6 0 7 -11 21
-26 32 -14 11 -23 22 -21 24 2 2 -14 22 -35 45 -21 22 -35 45 -32 51 4 6 3 8
-3 5 -6 -4 -23 9 -38 28 -14 20 -38 48 -52 63 -14 15 -37 43 -52 62 -14 19
-32 40 -40 46 -9 7 -11 16 -6 25 5 8 4 11 0 6 -5 -4 -17 0 -27 10 -20 18 -25
38 -6 27 7 -4 8 -3 4 4 -4 6 -13 9 -20 6 -7 -3 -21 8 -31 23 -10 15 -25 34
-32 41 -7 8 -10 18 -7 24 4 6 3 8 -3 5 -12 -8 -56 40 -48 53 3 5 0 12 -6 16
-8 5 -9 3 -4 -7 5 -8 -1 -5 -14 5 -12 11 -19 26 -17 33 3 7 1 12 -4 10 -14 -3
-91 86 -86 100 3 7 0 15 -6 19 -7 5 -8 2 -3 -6 5 -8 3 -11 -6 -8 -8 3 -13 13
-12 22 0 10 -2 15 -5 12 -3 -3 -12 0 -20 7 -17 14 -113 17 -105 3 3 -5 -10 -7
-30 -4 -20 2 -33 0 -31 -4 8 -13 -11 -9 -25 5 -11 10 -13 10 -7 0 4 -7 2 -13
-3 -13 -6 0 -14 -1 -18 -2 -116 -27 -122 -27 -163 3 -37 27 -56 49 -27 33 7
-4 9 -3 4 2 -5 5 -12 9 -15 9 -19 1 -52 27 -46 37 4 6 3 9 -2 5 -5 -3 -38 18
-74 47 l-64 52 -130 -48 c-72 -27 -143 -53 -158 -58 -22 -7 -48 4 -173 76 -81
46 -148 84 -149 83 0 0 -152 -88 -336 -195z m-2693 -2715 c-2 -27 -24 -31 -24
-5 0 13 5 23 13 23 7 0 12 -8 11 -18z m-73 -205 c9 -3 13 -11 9 -18 -4 -6 -8
-17 -9 -24 -2 -8 -6 -21 -10 -30 -9 -20 -11 -28 -13 -43 0 -5 -6 -7 -12 -3 -8
4 -7 9 2 15 8 5 10 9 6 9 -4 0 -3 9 3 21 10 17 8 21 -9 26 -12 3 -21 9 -21 13
0 5 10 6 21 3 18 -5 20 -3 14 16 -7 23 -5 24 19 15z m6456 -121 c0 -7 -4 -13
-9 -13 -5 0 -11 6 -14 13 -3 8 1 14 9 14 8 0 14 -6 14 -14z m-6535 -124 c11
-17 -1 -21 -15 -4 -8 9 -8 15 -2 15 6 0 14 -5 17 -11z m6499 -13 c-6 -16 -24
-23 -24 -8 0 10 22 33 27 28 2 -2 1 -11 -3 -20z m-44 -125 c0 -6 -4 -13 -10
-16 -6 -4 -4 -17 5 -36 14 -25 14 -29 1 -29 -9 0 -26 -12 -39 -26 -22 -23 -25
-24 -31 -8 -4 9 -2 22 3 27 5 5 7 16 4 23 -3 8 0 14 6 14 6 0 11 9 11 19 0 11
5 23 12 27 7 5 9 2 4 -7 -4 -8 -1 -6 6 4 14 19 28 23 28 8z m-6592 -180 c26
-23 28 -33 6 -29 -10 2 -19 -4 -21 -12 -4 -12 -3 -12 5 -2 19 27 20 -13 2 -51
-10 -21 -18 -40 -18 -43 0 -4 -7 -27 -17 -56 -1 -5 -3 -13 -4 -20 -1 -8 -4 -9
-11 -2 -7 7 -6 20 4 39 11 21 12 33 5 42 -13 15 -2 36 16 29 8 -3 11 2 8 15
-3 11 0 19 7 19 10 0 10 3 0 15 -6 8 -9 19 -5 24 3 6 1 20 -5 31 -13 25 -2 25
28 1z m6428 -226 c1 -14 -2 -25 -8 -25 -6 0 -4 -8 5 -18 10 -10 17 -23 17 -28
0 -5 -7 -1 -14 9 -12 16 -14 16 -20 1 -3 -9 -3 -21 1 -27 5 -8 2 -8 -9 0 -8 7
-18 10 -21 6 -4 -3 -7 -1 -7 5 0 7 5 12 11 12 6 0 8 7 5 16 -3 8 -2 12 4 9 5
-3 9 3 9 12 0 10 2 27 5 38 2 11 5 22 5 24 2 12 15 -12 17 -34z m-6521 -95 c3
-5 -1 -10 -10 -10 -9 0 -13 5 -10 10 3 6 8 10 10 10 2 0 7 -4 10 -10z m42
-214 c-13 -8 -12 -12 6 -26 14 -12 17 -19 9 -24 -7 -4 -12 -1 -12 6 0 10 -3 9
-11 -2 -9 -13 -10 -12 -5 2 3 10 1 20 -4 23 -8 5 -8 16 -1 54 1 2 8 -3 17 -10
15 -12 15 -15 1 -23z m127 -239 c4 4 4 0 0 -10 -8 -22 -11 -22 -25 6 -11 19
-10 20 3 10 8 -7 18 -10 22 -6z m1233 -1414 c-11 -10 -26 8 -20 23 5 15 7 14
15 -1 6 -9 7 -19 5 -22z m46 -31 c-5 -11 -3 -13 6 -7 10 6 11 3 2 -13 -13 -24
-14 -35 -3 -28 4 2 14 1 22 -4 11 -7 11 -12 2 -23 -7 -7 -10 -17 -7 -21 3 -3
0 -2 -7 3 -7 7 -19 6 -32 0 -20 -10 -20 -10 -2 5 16 13 17 16 4 16 -9 0 -19 7
-22 16 -3 8 -10 13 -15 10 -10 -6 -61 31 -61 44 0 18 39 31 60 20 20 -11 26
-3 20 25 -1 5 8 1 19 -9 11 -10 17 -24 14 -34z m40 -26 c4 -10 1 -13 -8 -9 -8
3 -12 9 -9 14 7 12 11 11 17 -5z m4268 -50 c-9 -11 -9 -15 1 -19 10 -4 10 -8
-2 -16 -22 -16 -34 -13 -20 4 7 8 9 15 6 15 -4 0 -2 9 4 21 7 11 14 18 17 15
3 -3 1 -12 -6 -20z m-4270 -43 c0 -5 2 -18 3 -31 3 -26 -9 -38 -20 -21 -5 8
-3 9 6 4 8 -5 11 -4 6 3 -4 6 -14 8 -23 5 -11 -4 -13 -8 -5 -11 7 -2 9 -9 6
-14 -4 -6 -3 -8 2 -5 6 3 16 2 24 -3 10 -6 21 -3 35 8 16 14 17 14 7 1 -6 -9
-9 -18 -6 -21 2 -3 -1 -8 -9 -11 -20 -8 -80 31 -74 47 3 8 0 19 -6 25 -8 8 -8
11 1 11 7 0 12 -5 12 -11 0 -8 5 -8 15 1 8 7 12 16 9 21 -3 5 0 9 5 9 6 0 11
-3 12 -7z m4239 -66 c0 -8 -7 -14 -15 -14 -16 0 -19 9 -8 20 11 11 23 8 23 -6z
m-4165 -37 c3 -5 1 -10 -4 -10 -6 0 -11 5 -11 10 0 6 2 10 4 10 3 0 8 -4 11
-10z m102 -120 c-3 -9 69 -70 75 -65 4 4 3 -29 -1 -43 -1 -1 -10 2 -20 7 -15
8 -20 7 -25 -6 -4 -9 -9 -13 -13 -10 -3 4 -1 13 6 20 19 24 -5 57 -42 57 -12
0 -34 23 -34 37 0 8 6 12 13 9 8 -3 16 -1 19 5 4 5 1 8 -6 7 -7 -2 -13 6 -14
17 0 11 -6 19 -13 17 -8 -1 -11 2 -6 9 5 8 16 1 35 -22 15 -19 27 -36 26 -39z
m3778 -29 c19 -2 -17 -26 -40 -26 -19 -1 -22 2 -14 16 5 10 17 16 26 14 10 -2
22 -4 28 -4z m-75 -34 c0 -5 -7 -7 -15 -3 -8 3 -18 -1 -22 -8 -10 -17 -53 -39
-60 -32 -8 8 17 37 27 31 4 -2 15 1 25 9 21 15 45 17 45 3z m-119 -50 c-10 -9
-11 -8 -5 6 3 10 9 15 12 12 3 -3 0 -11 -7 -18z m-159 -2 c9 2 22 -3 27 -9 8
-10 4 -16 -15 -25 -28 -12 -48 -6 -38 11 5 8 1 9 -11 4 -14 -5 -16 -4 -7 7 7
8 8 18 4 23 -4 4 0 3 8 -3 8 -6 23 -9 32 -8z m75 -28 c-7 -21 -22 -10 -22 16
-1 26 0 27 12 11 7 -10 12 -22 10 -27z m-3372 -7 c9 -17 20 -28 25 -25 4 3 7
-3 6 -12 -2 -11 -13 -18 -30 -20 -23 -2 -26 0 -15 13 9 12 15 12 28 2 14 -11
14 -11 3 4 -8 9 -19 15 -25 12 -8 -3 -12 7 -12 26 -1 16 0 30 2 30 1 0 10 -14
18 -30z m3130 3 c-4 -10 -7 -26 -7 -36 0 -9 -4 -15 -9 -11 -5 3 -7 15 -4 27 2
12 2 16 -1 9 -3 -6 -10 -9 -15 -6 -6 3 -15 1 -22 -5 -14 -11 -46 3 -34 16 5 4
12 1 17 -7 7 -10 10 -11 10 -2 0 6 9 12 19 12 11 0 23 5 26 10 11 17 28 11 20
-7z m50 6 c4 -6 13 -8 21 -5 8 3 11 0 7 -10 -4 -10 -9 -12 -16 -5 -6 6 -17 1
-32 -16 -18 -21 -23 -23 -28 -11 -6 16 18 58 33 58 5 0 12 -5 15 -11z m-172
-38 c9 -10 9 -12 -3 -9 -9 2 -14 -4 -14 -14 2 -25 -13 -22 -27 4 -10 18 -9 20
7 14 17 -5 17 -5 -1 9 -19 15 -19 16 3 12 12 -2 28 -9 35 -16z m87 -1 c0 -5
-4 -10 -10 -10 -5 0 -10 5 -10 10 0 6 5 10 10 10 6 0 10 -4 10 -10z m-278 -32
c-6 -6 -8 -17 -5 -24 3 -8 1 -14 -4 -14 -15 0 -23 12 -15 24 4 6 7 14 8 19 1
4 2 10 3 13 0 3 6 2 12 -2 7 -4 7 -10 1 -16z m48 16 c0 -8 -19 -13 -24 -6 -3
5 1 9 9 9 8 0 15 -2 15 -3z m70 2 c0 -3 -4 -8 -10 -11 -5 -3 -10 -1 -10 4 0 6
5 11 10 11 6 0 10 -2 10 -4z m-2892 -27 c16 8 23 6 38 -12 19 -22 19 -22 -2
-4 -19 16 -23 16 -34 2 -9 -11 -9 -15 -1 -15 7 0 10 -4 6 -10 -3 -5 -17 0 -30
12 -26 23 -36 49 -11 29 11 -9 20 -9 34 -2z m2670 -3 c7 -4 19 -3 26 3 10 9
15 8 19 -3 7 -17 -8 -30 -22 -22 -5 3 -8 -2 -7 -12 1 -21 -25 -23 -32 -2 -5
13 -3 13 13 0 17 -13 18 -13 10 0 -6 8 -10 18 -10 22 0 3 -4 10 -8 15 -5 4 -8
4 -7 -2 5 -22 -1 -29 -11 -15 -8 12 -9 10 -4 -9 5 -16 4 -21 -4 -17 -6 4 -21
1 -33 -6 -27 -15 -60 -19 -52 -7 3 5 -1 9 -8 9 -10 0 -9 3 2 9 8 6 17 8 21 5
4 -2 11 0 14 6 5 8 11 7 21 -1 8 -6 15 -8 16 -3 0 5 2 14 3 19 2 6 3 13 4 16
1 8 34 5 49 -5z m162 -16 c0 -4 -6 -13 -14 -19 -11 -10 -14 -7 -12 12 0 15 6
23 14 20 6 -3 12 -9 12 -13z m-2781 -27 c-4 -25 3 -33 25 -29 18 3 23 0 22
-17 -1 -11 -5 -22 -11 -23 -14 -4 -58 54 -50 66 7 12 16 13 14 3z m146 -63
c15 -18 15 -21 3 -12 -13 10 -21 11 -35 3 -17 -11 -17 -11 2 -9 13 2 19 -2 17
-11 -2 -8 3 -11 12 -8 9 4 18 2 21 -4 4 -5 11 -6 17 -3 7 4 8 2 4 -4 -4 -7 -2
-12 3 -12 6 0 10 -6 9 -12 -2 -7 3 -12 10 -10 6 1 12 -8 13 -20 0 -13 3 -17 6
-10 3 8 12 1 23 -20 10 -18 23 -32 29 -31 16 4 14 -12 -3 -27 -8 -6 -13 -17
-10 -24 3 -7 -3 -19 -13 -27 -10 -7 -15 -9 -11 -5 4 5 -1 21 -12 36 -11 15
-17 30 -13 33 3 4 1 13 -5 20 -14 17 -6 27 16 21 10 -3 6 1 -8 9 -13 8 -32 13
-42 12 -10 -2 -20 1 -23 6 -4 5 -11 7 -16 4 -5 -4 -12 1 -15 10 -4 10 -13 13
-24 10 -10 -3 -22 0 -26 6 -11 18 -14 60 -3 53 5 -3 6 -11 2 -17 -4 -7 0 -7
10 1 9 8 16 17 15 20 0 4 0 16 1 27 1 17 3 18 11 5 8 -13 10 -12 10 4 0 11 1
17 3 15 1 -2 11 -15 22 -29z m2215 4 c0 -8 -4 -12 -10 -9 -5 3 -10 10 -10 16
0 5 5 9 10 9 6 0 10 -7 10 -16z m-2190 -156 c0 -4 -7 -8 -15 -8 -8 0 -15 4
-15 8 0 5 7 9 15 9 8 0 15 -4 15 -9z m281 -68 c15 0 29 -7 33 -16 3 -8 2 -12
-4 -9 -5 3 -19 1 -31 -6 -12 -6 -19 -7 -15 -1 3 5 -1 15 -9 22 -12 10 -15 10
-15 -1 0 -12 -2 -12 -9 0 -6 9 -11 10 -15 2 -8 -13 -26 -5 -26 11 0 5 7 8 15
5 8 -4 17 -1 21 4 4 7 10 7 17 0 6 -6 23 -11 38 -11z m226 -31 c-7 -11 -15
-15 -20 -10 -12 12 -2 28 17 28 11 0 12 -4 3 -18z m-46 -12 c-10 -9 -11 -8 -5
6 3 10 9 15 12 12 3 -3 0 -11 -7 -18z m-241 -17 c0 -5 -5 -10 -11 -10 -5 0 -7
5 -4 10 3 6 8 10 11 10 2 0 4 -4 4 -10z"/>
<path d="M6719 3444 c-1 -2 -2 -7 -3 -11 -1 -5 -5 -14 -10 -21 -14 -22 -2 -19
26 8 23 23 24 26 7 27 -10 1 -20 0 -20 -3z"/>
<path d="M135 3201 c-3 -5 -2 -12 3 -15 5 -3 9 1 9 9 0 17 -3 19 -12 6z"/>
<path d="M1510 1123 c0 -5 -7 -18 -15 -29 -11 -13 -13 -14 -9 -3 6 20 -14 29
-41 18 -11 -4 -14 -8 -7 -8 7 -1 10 -6 6 -12 -4 -7 2 -6 17 2 22 11 23 11 10
-4 -7 -10 -11 -18 -7 -18 3 -1 9 -2 14 -3 4 0 21 -11 39 -24 19 -14 34 -18 38
-12 3 5 4 11 1 11 -3 1 -10 3 -16 4 -5 1 -15 3 -21 4 -8 1 -7 6 2 17 10 13 10
17 -2 25 -12 7 -12 10 0 18 9 6 10 11 2 15 -6 4 -11 3 -11 -1z m4 -54 c-3 -5
-10 -7 -15 -3 -5 3 -7 10 -3 15 3 5 10 7 15 3 5 -3 7 -10 3 -15z"/>
<path d="M1711 746 c10 -9 69 -36 69 -32 0 6 -55 36 -66 36 -4 0 -5 -2 -3 -4z"/>
<path d="M1787 685 c3 -8 9 -12 14 -9 12 7 11 11 -5 17 -10 4 -13 1 -9 -8z"/>
<path d="M5486 718 c3 -5 10 -6 15 -3 13 9 11 12 -6 12 -8 0 -12 -4 -9 -9z"/>
<path d="M5165 630 c3 -6 1 -10 -6 -10 -7 0 -10 -3 -6 -6 3 -3 13 -2 22 4 16
8 16 9 1 15 -10 4 -15 3 -11 -3z"/>
<path d="M5025 611 c-3 -5 0 -13 6 -17 7 -4 9 -3 5 4 -3 5 0 13 6 15 9 4 10 6
1 6 -6 1 -14 -3 -18 -8z"/>
<path d="M1996 447 c3 -10 9 -15 12 -12 3 3 0 11 -7 18 -10 9 -11 8 -5 -6z"/>
<path d="M2078 399 c-11 -6 -15 -16 -11 -26 5 -12 3 -14 -7 -8 -8 5 -11 4 -6
-3 4 -6 13 -9 20 -6 8 3 17 1 20 -5 4 -6 13 -8 22 -4 9 3 14 0 12 -7 -2 -8 8
-14 24 -15 l27 -2 -26 33 c-23 31 -51 39 -37 11 3 -7 -1 -3 -10 7 -8 10 -13
23 -10 27 7 11 3 11 -18 -2z m20 -29 c7 -11 11 -20 9 -20 -2 0 -12 9 -22 20
-10 11 -14 20 -9 20 5 0 15 -9 22 -20z m45 -13 c13 -20 13 -24 1 -24 -8 0 -12
2 -9 5 2 3 0 13 -6 23 -14 27 -4 24 14 -4z"/>
<path d="M2189 278 c7 -10 17 -16 21 -13 5 3 11 1 15 -5 6 -10 -9 -15 -30 -10
-5 1 -6 -2 -2 -6 27 -27 54 0 31 31 -9 11 -14 14 -14 6 0 -11 -3 -11 -17 0
-16 13 -17 12 -4 -3z"/>
<path d="M4373 6815 c0 -8 4 -12 9 -9 5 3 6 10 3 15 -9 13 -12 11 -12 -6z"/>
<path d="M4415 6821 c-3 -5 -2 -12 3 -15 5 -3 9 1 9 9 0 17 -3 19 -12 6z"/>
<path d="M4406 6758 c3 -5 10 -6 15 -3 13 9 11 12 -6 12 -8 0 -12 -4 -9 -9z"/>
<path d="M4820 6680 c-9 -6 -10 -10 -3 -10 6 0 15 5 18 10 8 12 4 12 -15 0z"/>
<path d="M2670 6616 c0 -2 8 -10 18 -17 15 -13 16 -12 3 4 -13 16 -21 21 -21
13z"/>
<path d="M4960 6600 c-9 -6 -10 -10 -3 -10 6 0 15 5 18 10 8 12 4 12 -15 0z"/>
<path d="M2550 6576 c0 -2 8 -10 18 -17 15 -13 16 -12 3 4 -13 16 -21 21 -21
13z"/>
<path d="M4910 6566 c0 -2 7 -7 16 -10 8 -3 12 -2 9 4 -6 10 -25 14 -25 6z"/>
<path d="M5015 6540 c-3 -5 -1 -10 4 -10 6 0 11 5 11 10 0 6 -2 10 -4 10 -3 0
-8 -4 -11 -10z"/>
<path d="M2376 6522 c-3 -5 1 -9 9 -9 8 0 12 4 9 9 -3 4 -7 8 -9 8 -2 0 -6 -4
-9 -8z"/>
<path d="M2466 6522 c-3 -5 1 -9 9 -9 8 0 12 4 9 9 -3 4 -7 8 -9 8 -2 0 -6 -4
-9 -8z"/>
<path d="M5030 6496 c0 -2 8 -10 18 -17 15 -13 16 -12 3 4 -13 16 -21 21 -21
13z"/>
<path d="M4995 6480 c3 -5 8 -10 11 -10 2 0 4 5 4 10 0 6 -5 10 -11 10 -5 0
-7 -4 -4 -10z"/>
<path d="M2355 6449 c-4 -6 -5 -12 -2 -15 2 -3 7 2 10 11 7 17 1 20 -8 4z"/>
<path d="M1756 6433 c-6 -14 -5 -15 5 -6 7 7 10 15 7 18 -3 3 -9 -2 -12 -12z"/>
<path d="M2115 6440 c-3 -5 -1 -10 4 -10 6 0 11 5 11 10 0 6 -2 10 -4 10 -3 0
-8 -4 -11 -10z"/>
<path d="M2187 6439 c7 -7 15 -10 18 -7 3 3 -2 9 -12 12 -14 6 -15 5 -6 -5z"/>
<path d="M2376 6433 c-6 -14 -5 -15 5 -6 7 7 10 15 7 18 -3 3 -9 -2 -12 -12z"/>
<path d="M5053 6435 c0 -8 4 -12 9 -9 5 3 6 10 3 15 -9 13 -12 11 -12 -6z"/>
<path d="M2007 6419 c7 -7 15 -10 18 -7 3 3 -2 9 -12 12 -14 6 -15 5 -6 -5z"/>
<path d="M2060 6420 c-9 -6 -10 -10 -3 -10 6 0 15 5 18 10 8 12 4 12 -15 0z"/>
<path d="M2302 6405 c15 -16 20 -17 30 -6 11 11 10 13 0 7 -7 -4 -21 -2 -30 5
-15 12 -15 11 0 -6z"/>
<path d="M2405 6410 c-16 -7 -17 -9 -3 -9 9 -1 20 4 23 9 7 11 7 11 -20 0z"/>
<path d="M5075 6410 c-4 -6 -11 -8 -16 -5 -5 4 -9 1 -9 -4 0 -16 16 -13 30 4
7 8 10 15 7 15 -3 0 -9 -5 -12 -10z"/>
<path d="M2115 6400 c3 -5 8 -10 11 -10 2 0 4 5 4 10 0 6 -5 10 -11 10 -5 0
-7 -4 -4 -10z"/>
<path d="M2185 6400 c-3 -6 1 -7 9 -4 18 7 21 14 7 14 -6 0 -13 -4 -16 -10z"/>
<path d="M1819 6388 c-6 -21 -5 -38 1 -38 5 0 8 9 7 20 -1 17 -5 26 -8 18z"/>
<path d="M2150 6380 c-9 -6 -10 -10 -3 -10 6 0 15 5 18 10 8 12 4 12 -15 0z"/>
<path d="M2036 6367 c3 -10 9 -15 12 -12 3 3 0 11 -7 18 -10 9 -11 8 -5 -6z"/>
<path d="M1850 6361 c0 -6 4 -13 10 -16 6 -3 7 1 4 9 -7 18 -14 21 -14 7z"/>
<path d="M5073 6356 c-3 -6 -3 -8 2 -4 4 4 13 3 20 -2 8 -7 12 -5 12 3 0 16
-25 18 -34 3z"/>
<path d="M1575 6351 c-3 -5 -2 -12 3 -15 5 -3 9 1 9 9 0 17 -3 19 -12 6z"/>
<path d="M1655 6340 c-3 -5 -1 -10 4 -10 6 0 11 5 11 10 0 6 -2 10 -4 10 -3 0
-8 -4 -11 -10z"/>
<path d="M1396 6327 c3 -10 9 -15 12 -12 3 3 0 11 -7 18 -10 9 -11 8 -5 -6z"/>
<path d="M1773 6325 c0 -8 4 -12 9 -9 5 3 6 10 3 15 -9 13 -12 11 -12 -6z"/>
<path d="M5133 6327 c0 -8 6 -14 14 -14 9 0 10 4 2 14 -6 7 -12 13 -14 13 -1
0 -2 -6 -2 -13z"/>
<path d="M1726 6322 c-3 -5 1 -9 9 -9 8 0 12 4 9 9 -3 4 -7 8 -9 8 -2 0 -6 -4
-9 -8z"/>
<path d="M1830 6321 c0 -6 4 -12 8 -15 5 -3 9 1 9 9 0 8 -4 15 -9 15 -4 0 -8
-4 -8 -9z"/>
<path d="M1880 6315 c-7 -9 -8 -15 -2 -15 5 0 12 7 16 15 3 8 4 15 2 15 -2 0
-9 -7 -16 -15z"/>
<path d="M5160 6294 c-11 -12 -10 -18 5 -32 18 -16 18 -16 6 1 -11 14 -11 20
-1 32 7 8 10 15 7 15 -2 0 -10 -7 -17 -16z"/>
<path d="M5193 6287 c0 -8 6 -14 14 -14 9 0 10 4 2 14 -6 7 -12 13 -14 13 -1
0 -2 -6 -2 -13z"/>
<path d="M1335 6260 c3 -5 8 -10 11 -10 2 0 4 5 4 10 0 6 -5 10 -11 10 -5 0
-7 -4 -4 -10z"/>
<path d="M5180 6240 c-9 -6 -10 -10 -3 -10 6 0 15 5 18 10 8 12 4 12 -15 0z"/>
<path d="M5296 6235 c-9 -26 -7 -32 5 -12 6 10 9 21 6 23 -2 3 -7 -2 -11 -11z"/>
<path d="M1193 6175 c0 -8 4 -12 9 -9 5 3 6 10 3 15 -9 13 -12 11 -12 -6z"/>
<path d="M5330 6159 c0 -5 5 -7 10 -4 6 3 10 8 10 11 0 2 -4 4 -10 4 -5 0 -10
-5 -10 -11z"/>
<path d="M5280 6140 c-9 -6 -10 -10 -3 -10 6 0 15 5 18 10 8 12 4 12 -15 0z"/>
<path d="M5296 6115 c-9 -26 -7 -32 5 -12 6 10 9 21 6 23 -2 3 -7 -2 -11 -11z"/>
<path d="M1149 6083 c-13 -16 -12 -17 4 -4 16 13 21 21 13 21 -2 0 -10 -8 -17
-17z"/>
<path d="M5331 6086 c-9 -10 -8 -15 2 -19 8 -3 13 3 13 14 0 23 0 23 -15 5z"/>
<path d="M1070 6059 c0 -5 5 -7 10 -4 6 3 10 8 10 11 0 2 -4 4 -10 4 -5 0 -10
-5 -10 -11z"/>
<path d="M5393 6055 c0 -8 4 -12 9 -9 5 3 6 10 3 15 -9 13 -12 11 -12 -6z"/>
<path d="M1119 6033 c-17 -20 -18 -23 -3 -10 11 9 23 15 26 12 2 -3 5 2 5 10
0 19 1 20 -28 -12z"/>
<path d="M1166 6043 c-6 -14 -5 -15 5 -6 7 7 10 15 7 18 -3 3 -9 -2 -12 -12z"/>
<path d="M5340 6045 c0 -2 6 -8 13 -14 10 -8 14 -7 14 2 0 8 -6 14 -14 14 -7
0 -13 -1 -13 -2z"/>
<path d="M5475 6001 c-3 -5 -2 -12 3 -15 5 -3 9 1 9 9 0 17 -3 19 -12 6z"/>
<path d="M1075 5982 c3 -3 0 -10 -5 -17 -7 -8 -5 -12 5 -12 8 0 13 3 10 5 -3
3 0 10 5 17 7 8 5 12 -5 12 -8 0 -13 -3 -10 -5z"/>
<path d="M1036 5967 c3 -10 9 -15 12 -12 3 3 0 11 -7 18 -10 9 -11 8 -5 -6z"/>
<path d="M1055 5930 c-4 -6 -12 -7 -18 -4 -7 4 -9 4 -5 -1 4 -4 4 -13 -2 -19
-6 -8 -2 -12 13 -13 17 -2 19 0 7 7 -13 8 -8 14 11 12 3 -1 6 6 6 14 0 17 -4
18 -12 4z"/>
<path d="M5475 5930 c-4 -6 -11 -8 -16 -5 -5 4 -9 1 -9 -4 0 -16 16 -13 30 4
7 8 10 15 7 15 -3 0 -9 -5 -12 -10z"/>
<path d="M1095 5920 c-3 -5 -3 -10 1 -10 4 0 -1 -7 -12 -16 -18 -14 -18 -15 4
-4 12 6 20 15 17 20 -3 4 1 11 7 13 9 4 10 6 1 6 -6 1 -15 -3 -18 -9z"/>
<path d="M996 5861 c-3 -5 2 -15 12 -22 15 -12 16 -12 5 2 -7 9 -10 19 -6 22
3 4 4 7 0 7 -3 0 -8 -4 -11 -9z"/>
<path d="M1035 5860 c-3 -6 1 -7 9 -4 18 7 21 14 7 14 -6 0 -13 -4 -16 -10z"/>
<path d="M970 5841 c0 -6 4 -13 10 -16 6 -3 7 1 4 9 -7 18 -14 21 -14 7z"/>
<path d="M414 4416 c1 -8 5 -18 8 -22 4 -3 5 1 4 10 -1 8 -5 18 -8 22 -4 3 -5
-1 -4 -10z"/>
<path d="M436 4382 c-2 -4 -1 -14 4 -22 7 -11 9 -9 7 8 -1 24 -3 26 -11 14z"/>
<path d="M6775 4370 c-4 -6 -11 -7 -17 -4 -7 4 -8 2 -4 -5 6 -9 11 -9 22 0 14
11 18 19 10 19 -3 0 -8 -5 -11 -10z"/>
<path d="M6940 4366 c0 -2 8 -10 18 -17 15 -13 16 -12 3 4 -13 16 -21 21 -21
13z"/>
<path d="M6846 4282 c-3 -5 1 -9 9 -9 8 0 12 4 9 9 -3 4 -7 8 -9 8 -2 0 -6 -4
-9 -8z"/>
<path d="M6886 4262 c-3 -5 1 -9 9 -9 8 0 12 4 9 9 -3 4 -7 8 -9 8 -2 0 -6 -4
-9 -8z"/>
<path d="M394 4226 c1 -8 5 -18 8 -22 4 -3 5 1 4 10 -1 8 -5 18 -8 22 -4 3 -5
-1 -4 -10z"/>
<path d="M6935 4229 c-4 -6 -5 -12 -2 -15 2 -3 7 2 10 11 7 17 1 20 -8 4z"/>
<path d="M429 4211 c6 -10 8 -20 6 -23 -3 -3 1 -5 9 -5 12 0 12 4 -1 24 -18
28 -28 31 -14 4z"/>
<path d="M6930 4180 c0 -5 5 -10 11 -10 5 0 7 5 4 10 -3 6 -8 10 -11 10 -2 0
-4 -4 -4 -10z"/>
<path d="M410 4160 c0 -5 5 -10 10 -10 6 0 10 5 10 10 0 6 -4 10 -10 10 -5 0
-10 -4 -10 -10z"/>
<path d="M386 4123 c10 -7 23 -13 28 -12 6 0 5 3 -2 6 -6 2 -10 8 -8 12 3 4
-4 7 -15 7 -19 0 -19 -1 -3 -13z"/>
<path d="M286 4098 c3 -5 10 -6 15 -3 13 9 11 12 -6 12 -8 0 -12 -4 -9 -9z"/>
<path d="M339 4073 c-13 -16 -12 -17 4 -4 9 7 17 15 17 17 0 8 -8 3 -21 -13z"/>
<path d="M370 4085 c0 -8 29 -12 39 -5 9 5 4 8 -13 8 -14 0 -26 -2 -26 -3z"/>
<path d="M364 4055 c-4 -8 -10 -13 -14 -10 -4 3 -10 -1 -13 -8 -3 -7 3 -13 13
-13 10 0 18 3 18 6 -2 20 4 30 14 24 7 -4 8 -3 4 4 -10 16 -15 15 -22 -3z"/>
<path d="M6929 4003 c-13 -16 -12 -17 4 -4 16 13 21 21 13 21 -2 0 -10 -8 -17
-17z"/>
<path d="M6949 3983 c-13 -16 -12 -17 4 -4 16 13 21 21 13 21 -2 0 -10 -8 -17
-17z"/>
<path d="M289 3963 c-13 -16 -12 -17 4 -4 9 7 17 15 17 17 0 8 -8 3 -21 -13z"/>
<path d="M250 3959 c0 -5 5 -7 10 -4 6 3 10 8 10 11 0 2 -4 4 -10 4 -5 0 -10
-5 -10 -11z"/>
<path d="M335 3951 c-3 -5 0 -13 6 -17 7 -4 9 -3 5 4 -3 5 0 13 6 15 9 4 10 6
1 6 -6 1 -14 -3 -18 -8z"/>
<path d="M352 3924 c-17 -16 -20 -24 -11 -30 8 -4 9 -3 5 4 -4 7 -1 12 7 12 8
0 18 7 21 16 9 24 4 23 -22 -2z"/>
<path d="M6910 3943 c0 -5 10 -18 23 -29 l22 -19 -20 25 c-11 14 -21 27 -22
29 -2 2 -3 0 -3 -6z"/>
<path d="M313 3925 c0 -8 4 -12 9 -9 5 3 6 10 3 15 -9 13 -12 11 -12 -6z"/>
<path d="M6956 3927 c3 -10 9 -15 12 -12 3 3 0 11 -7 18 -10 9 -11 8 -5 -6z"/>
<path d="M6890 3920 c0 -5 5 -10 11 -10 5 0 7 5 4 10 -3 6 -8 10 -11 10 -2 0
-4 -4 -4 -10z"/>
<path d="M300 3889 c0 -5 -4 -7 -10 -4 -5 3 -10 1 -10 -4 0 -6 5 -11 11 -11 5
0 7 -6 3 -12 -4 -7 -3 -10 1 -5 10 8 18 47 10 47 -3 0 -5 -5 -5 -11z"/>
<path d="M6919 3887 c8 -9 16 -15 19 -12 3 3 13 -2 23 -11 14 -12 18 -13 25
-2 4 7 3 10 -1 5 -5 -4 -17 0 -27 10 -10 9 -18 13 -18 8 0 -4 -8 -1 -17 6 -16
13 -17 12 -4 -4z"/>
<path d="M215 3860 c-3 -5 -1 -10 4 -10 6 0 11 5 11 10 0 6 -2 10 -4 10 -3 0
-8 -4 -11 -10z"/>
<path d="M6876 3857 c3 -10 9 -15 12 -12 3 3 0 11 -7 18 -10 9 -11 8 -5 -6z"/>
<path d="M6911 3833 c3 -44 0 -55 -13 -47 -7 5 -8 3 -3 -6 6 -10 10 -10 20 3
9 13 15 14 26 4 7 -7 6 -3 -2 8 -9 11 -15 30 -14 43 1 12 -2 22 -7 22 -4 0 -7
-12 -7 -27z"/>
<path d="M304 3835 c-5 -13 -9 -13 -23 -3 -14 12 -15 11 -2 -4 17 -22 18 -22
31 2 6 11 8 20 5 20 -3 0 -8 -7 -11 -15z"/>
<path d="M215 3820 c-3 -5 -1 -10 4 -10 6 0 11 5 11 10 0 6 -2 10 -4 10 -3 0
-8 -4 -11 -10z"/>
<path d="M6855 3820 c-3 -5 -2 -10 4 -10 5 0 13 5 16 10 3 6 2 10 -4 10 -5 0
-13 -4 -16 -10z"/>
<path d="M6960 3820 c-12 -7 -10 -9 7 -7 12 0 19 5 17 9 -6 10 -6 10 -24 -2z"/>
<path d="M262 3804 c10 -10 20 -16 22 -13 3 3 -5 11 -17 18 -21 13 -21 12 -5
-5z"/>
<path d="M6870 3800 c-8 -5 -10 -10 -5 -10 6 0 17 5 25 10 8 5 11 10 5 10 -5
0 -17 -5 -25 -10z"/>
<path d="M290 3770 c-6 -12 -9 -24 -6 -28 3 -3 6 0 6 7 0 7 4 9 10 6 6 -4 7 1
4 12 -5 16 -4 16 10 -1 9 -11 16 -15 16 -9 0 6 -6 16 -14 22 -12 10 -17 8 -26
-9z"/>
<path d="M247 3760 c-8 -11 -17 -18 -20 -15 -4 3 -5 2 -2 -2 9 -12 34 -12 42
-1 3 7 1 8 -5 4 -16 -9 -15 7 0 22 7 7 9 12 6 12 -4 0 -13 -9 -21 -20z"/>
<path d="M6877 3763 c-13 -12 -7 -23 11 -22 10 0 12 3 4 6 -6 2 -10 9 -6 14 6
10 0 12 -9 2z"/>
<path d="M6919 3753 c-12 -16 -12 -17 2 -6 9 7 20 9 24 5 5 -4 5 -1 1 6 -9 16
-11 15 -27 -5z"/>
<path d="M6825 3721 c3 -2 -2 -15 -10 -28 -9 -13 -11 -23 -5 -23 5 0 10 6 10
13 0 8 4 7 11 -3 9 -12 10 -12 5 4 -4 11 -1 23 6 28 20 12 32 10 21 -4 -5 -7
-9 -22 -9 -32 1 -25 42 -30 42 -5 0 17 -2 17 -18 2 -17 -15 -18 -15 -14 8 2
14 9 23 17 21 12 -3 12 -1 1 10 -7 7 -24 13 -37 13 -13 1 -22 -1 -20 -4z"/>
<path d="M6890 3726 c0 -2 7 -7 16 -10 8 -3 12 -2 9 4 -6 10 -25 14 -25 6z"/>
<path d="M234 3712 c3 -5 0 -13 -6 -15 -9 -4 -10 -6 -1 -6 17 -1 25 16 12 25
-7 4 -9 3 -5 -4z"/>
<path d="M191 3687 c-8 -10 -7 -14 2 -14 8 0 14 6 14 14 0 7 -1 13 -2 13 -2 0
-8 -6 -14 -13z"/>
<path d="M6936 3687 c3 -10 9 -15 12 -12 3 3 0 11 -7 18 -10 9 -11 8 -5 -6z"/>
<path d="M256 3675 c4 -8 8 -15 10 -15 2 0 4 7 4 15 0 8 -4 15 -10 15 -5 0 -7
-7 -4 -15z"/>
<path d="M6913 3665 c0 -8 4 -12 9 -9 5 3 6 10 3 15 -9 13 -12 11 -12 -6z"/>
<path d="M6860 3636 c0 -2 7 -7 16 -10 8 -3 12 -2 9 4 -6 10 -25 14 -25 6z"/>
<path d="M196 3615 c-9 -26 -7 -32 5 -12 6 10 9 21 6 23 -2 3 -7 -2 -11 -11z"/>
<path d="M220 3615 c0 -5 8 -17 17 -27 16 -17 16 -20 -1 -36 -17 -16 -18 -16
-12 5 7 23 -8 40 -20 22 -5 -8 -3 -9 6 -4 10 6 12 4 7 -9 -10 -26 1 -37 23
-23 25 15 25 23 0 54 -11 14 -20 22 -20 18z"/>
<path d="M6874 3598 c-4 -7 -4 -10 1 -6 4 4 15 2 24 -5 14 -11 14 -10 2 6 -16
20 -18 21 -27 5z"/>
<path d="M170 3576 c0 -2 8 -10 18 -17 15 -13 16 -12 3 4 -13 16 -21 21 -21
13z"/>
<path d="M6838 3573 c7 -3 16 -2 19 1 4 3 -2 6 -13 5 -11 0 -14 -3 -6 -6z"/>
<path d="M6880 3560 c-9 -6 -10 -10 -3 -10 6 0 15 5 18 10 8 12 4 12 -15 0z"/>
<path d="M181 3535 c0 -5 3 -16 8 -23 7 -11 9 -10 14 3 4 9 3 14 -2 10 -5 -3
-12 1 -14 7 -3 7 -6 9 -6 3z"/>
<path d="M240 3523 c-14 -9 -28 -23 -33 -29 -4 -7 -15 -11 -25 -8 -9 2 -7 -1
6 -7 27 -15 28 -25 2 -41 -11 -7 -20 -17 -20 -22 0 -4 6 -3 13 3 14 11 27 5
27 -11 0 -5 -6 -6 -12 -2 -8 5 -8 1 2 -12 22 -29 24 -30 17 -12 -3 10 -1 20 5
24 7 4 5 10 -6 16 -13 7 -14 13 -6 23 7 8 9 19 5 25 -8 13 23 52 35 45 4 -3
10 2 14 10 7 19 6 19 -24 -2z"/>
<path d="M6833 3515 c4 -36 13 -39 12 -5 0 17 -3 30 -8 30 -4 0 -6 -11 -4 -25z"/>
<path d="M6867 3499 c7 -7 15 -10 18 -7 3 3 -2 9 -12 12 -14 6 -15 5 -6 -5z"/>
<path d="M235 3489 c-10 -15 3 -25 16 -12 7 7 7 13 1 17 -6 3 -14 1 -17 -5z"/>
<path d="M6790 3480 c-8 -5 -10 -10 -5 -10 6 0 17 5 25 10 8 5 11 10 5 10 -5
0 -17 -5 -25 -10z"/>
<path d="M114 3454 c1 -8 4 -15 7 -16 2 -2 3 -1 2 1 -2 2 2 9 7 16 7 8 5 12
-4 12 -8 0 -13 -6 -12 -13z"/>
<path d="M153 3454 c0 -8 4 -14 9 -14 4 0 8 5 8 11 0 5 6 7 13 3 6 -4 8 -3 4
1 -13 15 -34 14 -34 -1z"/>
<path d="M6896 3458 c3 -5 10 -6 15 -3 13 9 11 12 -6 12 -8 0 -12 -4 -9 -9z"/>
<path d="M6796 3447 c3 -10 9 -15 12 -12 3 3 0 11 -7 18 -10 9 -11 8 -5 -6z"/>
<path d="M90 3441 c0 -6 4 -13 10 -16 6 -3 7 1 4 9 -7 18 -14 21 -14 7z"/>
<path d="M35 3411 c-3 -5 -2 -12 3 -15 5 -3 9 1 9 9 0 17 -3 19 -12 6z"/>
<path d="M94 3398 c-4 -7 -4 -10 1 -6 4 4 15 2 24 -5 14 -11 14 -10 2 6 -16
20 -18 21 -27 5z"/>
<path d="M150 3390 c0 -5 5 -10 10 -10 6 0 10 5 10 10 0 6 -4 10 -10 10 -5 0
-10 -4 -10 -10z"/>
<path d="M6775 3380 c-3 -6 1 -7 9 -4 18 7 21 14 7 14 -6 0 -13 -4 -16 -10z"/>
<path d="M94 3361 c0 -16 4 -17 28 -9 15 6 28 12 28 15 0 3 -7 2 -16 -1 -9 -4
-22 -2 -28 3 -8 7 -12 4 -12 -8z"/>
<path d="M6786 3362 c-3 -5 1 -9 9 -9 8 0 15 4 15 9 0 4 -4 8 -9 8 -6 0 -12
-4 -15 -8z"/>
<path d="M6759 3343 c0 -5 -2 -16 -4 -25 -2 -12 2 -15 13 -10 10 3 11 7 5 9
-7 3 -9 11 -6 19 3 8 2 14 -1 14 -3 0 -6 -3 -7 -7z"/>
<path d="M90 3300 c-9 -6 -10 -10 -3 -10 6 0 15 5 18 10 8 12 4 12 -15 0z"/>
<path d="M116 3293 c-6 -14 -5 -15 5 -6 7 7 10 15 7 18 -3 3 -9 -2 -12 -12z"/>
<path d="M62 3284 c10 -10 20 -16 22 -13 3 3 -5 11 -17 18 -21 13 -21 12 -5
-5z"/>
<path d="M6764 3278 c-12 -14 -13 -18 -3 -10 9 6 18 10 21 7 2 -3 5 2 5 10 0
19 0 19 -23 -7z"/>
<path d="M6693 3261 c-15 -19 -19 -32 -12 -42 8 -13 10 -10 9 16 -1 13 26 32
40 28 9 -3 11 -2 5 4 -5 4 -12 11 -15 14 -3 4 -15 -6 -27 -20z"/>
<path d="M100 3266 c0 -2 7 -6 15 -10 8 -3 15 -1 15 4 0 6 -7 10 -15 10 -8 0
-15 -2 -15 -4z"/>
<path d="M94 3235 c3 -8 0 -15 -6 -15 -6 0 -8 -3 -5 -6 9 -9 38 16 31 27 -9
15 -26 10 -20 -6z"/>
<path d="M6740 3240 c8 -5 20 -10 25 -10 6 0 3 5 -5 10 -8 5 -19 10 -25 10 -5
0 -3 -5 5 -10z"/>
<path d="M6710 3236 c0 -2 8 -10 18 -17 15 -13 16 -12 3 4 -13 16 -21 21 -21
13z"/>
<path d="M39 3213 c-13 -16 -12 -17 4 -4 9 7 17 15 17 17 0 8 -8 3 -21 -13z"/>
<path d="M6635 3211 c3 -2 0 -10 -7 -18 -6 -7 -8 -16 -5 -20 4 -3 1 -13 -6
-22 -10 -14 -10 -14 4 -4 9 7 20 9 24 5 5 -4 5 -2 2 4 -4 7 0 15 9 18 9 4 14
9 11 13 -4 3 -13 0 -22 -7 -8 -7 -15 -8 -15 -2 0 14 25 33 33 25 4 -3 7 -1 7
5 0 6 -9 10 -20 9 -10 -1 -17 -3 -15 -6z"/>
<path d="M10 3201 c0 -6 4 -13 10 -16 6 -3 7 1 4 9 -7 18 -14 21 -14 7z"/>
<path d="M6700 3206 c0 -2 7 -7 16 -10 8 -3 12 -2 9 4 -6 10 -25 14 -25 6z"/>
<path d="M53 3165 c0 -7 6 -11 14 -8 16 6 16 10 0 16 -8 3 -14 -1 -14 -8z"/>
<path d="M24 3150 c0 -13 4 -16 10 -10 7 7 7 13 0 20 -6 6 -10 3 -10 -10z"/>
<path d="M6833 3155 c0 -8 4 -12 9 -9 5 3 6 10 3 15 -9 13 -12 11 -12 -6z"/>
<path d="M83 3153 c-15 -5 -17 -23 -4 -23 5 0 11 7 15 15 3 8 4 15 3 14 -1 0
-8 -3 -14 -6z"/>
<path d="M6773 3129 c-2 -23 3 -25 10 -4 4 8 3 16 -1 19 -4 3 -9 -4 -9 -15z"/>
<path d="M35 3120 c-3 -6 1 -7 9 -4 18 7 21 14 7 14 -6 0 -13 -4 -16 -10z"/>
<path d="M84 3099 c15 -24 13 -39 -6 -39 -5 0 -7 4 -4 9 3 4 -1 16 -8 26 -10
14 -15 15 -21 5 -5 -8 -4 -11 3 -6 17 10 20 -17 4 -42 -8 -12 -12 -25 -8 -29
3 -3 6 -1 6 6 0 7 4 9 10 6 6 -3 7 1 4 10 -4 10 -2 14 8 10 8 -3 20 0 27 8 9
11 7 19 -9 38 l-21 24 15 -26z"/>
<path d="M6670 3100 c0 -5 5 -10 10 -10 6 0 10 5 10 10 0 6 -4 10 -10 10 -5 0
-10 -4 -10 -10z"/>
<path d="M6636 3074 c-9 -24 -2 -26 12 -4 7 11 8 20 3 20 -5 0 -12 -7 -15 -16z"/>
<path d="M6670 3061 c0 -6 4 -13 10 -16 6 -3 7 1 4 9 -7 18 -14 21 -14 7z"/>
<path d="M6628 3008 c-10 -10 -14 -18 -9 -18 10 0 36 29 30 34 -2 1 -12 -6
-21 -16z"/>
<path d="M10 2998 c0 -4 4 -8 9 -8 6 0 12 4 15 8 3 5 -1 9 -9 9 -8 0 -15 -4
-15 -9z"/>
<path d="M6666 2998 c3 -5 10 -6 15 -3 13 9 11 12 -6 12 -8 0 -12 -4 -9 -9z"/>
<path d="M41 2975 c0 -5 3 -16 8 -23 7 -11 9 -10 14 3 4 9 3 14 -2 10 -5 -3
-12 1 -14 7 -3 7 -6 9 -6 3z"/>
<path d="M6697 2955 c-4 -8 -3 -16 1 -19 4 -3 9 4 9 15 2 23 -3 25 -10 4z"/>
<path d="M16 2943 c-6 -14 -5 -15 5 -6 7 7 10 15 7 18 -3 3 -9 -2 -12 -12z"/>
<path d="M6566 2935 c9 -14 20 -25 25 -25 5 0 -1 11 -13 25 -12 14 -23 25 -25
25 -2 0 4 -11 13 -25z"/>
<path d="M6549 2923 c14 -27 14 -36 1 -28 -6 3 -7 -1 -4 -9 3 -9 10 -16 14
-16 12 0 4 50 -10 63 -10 10 -10 8 -1 -10z"/>
<path d="M6644 2923 c4 -4 16 -8 28 -10 28 -4 18 6 -12 12 -12 2 -20 1 -16 -2z"/>
<path d="M30 2900 c-9 -6 -10 -10 -3 -10 6 0 15 5 18 10 8 12 4 12 -15 0z"/>
<path d="M6610 2880 c0 -5 5 -10 10 -10 6 0 10 5 10 10 0 6 -4 10 -10 10 -5 0
-10 -4 -10 -10z"/>
<path d="M38 2873 c7 -3 16 -2 19 1 4 3 -2 6 -13 5 -11 0 -14 -3 -6 -6z"/>
<path d="M6571 2851 c-8 -14 -7 -20 3 -24 10 -4 12 0 8 15 -4 16 -2 19 8 13 9
-5 11 -4 6 3 -10 16 -14 15 -25 -7z"/>
<path d="M6650 2860 c0 -5 5 -10 11 -10 5 0 7 5 4 10 -3 6 -8 10 -11 10 -2 0
-4 -4 -4 -10z"/>
<path d="M6614 2840 c0 -13 4 -16 10 -10 7 7 7 13 0 20 -6 6 -10 3 -10 -10z"/>
<path d="M6 2838 c3 -5 10 -6 15 -3 13 9 11 12 -6 12 -8 0 -12 -4 -9 -9z"/>
<path d="M6575 2801 c-3 -5 -2 -12 3 -15 5 -3 9 1 9 9 0 17 -3 19 -12 6z"/>
<path d="M6640 2800 c-9 -6 -10 -10 -3 -10 6 0 15 5 18 10 8 12 4 12 -15 0z"/>
<path d="M21 2777 c2 -1 13 -9 24 -17 19 -14 19 -14 6 3 -7 9 -18 17 -24 17
-6 0 -8 -1 -6 -3z"/>
<path d="M6553 2764 c8 -9 47 -13 51 -6 2 4 -9 8 -25 8 -17 1 -28 0 -26 -2z"/>
<path d="M6606 2742 c-3 -5 1 -9 9 -9 8 0 12 4 9 9 -3 4 -7 8 -9 8 -2 0 -6 -4
-9 -8z"/>
<path d="M35 2708 c1 -18 -2 -38 -6 -44 -5 -6 -4 -11 4 -11 7 0 13 17 14 44 0
24 -2 43 -6 43 -4 0 -6 -15 -6 -32z"/>
<path d="M6570 2736 c0 -2 8 -10 18 -17 15 -13 16 -12 3 4 -13 16 -21 21 -21
13z"/>
<path d="M6710 2719 c0 -5 5 -7 10 -4 6 3 10 8 10 11 0 2 -4 4 -10 4 -5 0 -10
-5 -10 -11z"/>
<path d="M222 2655 c4 -4 3 -14 -2 -20 -7 -9 -6 -16 4 -24 8 -7 12 -19 9 -27
-3 -8 -1 -14 4 -14 5 0 9 9 10 20 1 11 -4 20 -10 20 -7 0 -6 4 3 10 11 7 11
10 2 10 -7 0 -11 4 -7 9 3 5 0 13 -7 17 -7 4 -10 4 -6 -1z"/>
<path d="M96 2621 c-7 -11 22 -36 31 -28 3 4 -2 9 -11 13 -9 3 -13 10 -10 15
3 5 3 9 0 9 -3 0 -7 -4 -10 -9z"/>
<path d="M6570 2619 c0 -5 5 -7 10 -4 6 3 10 8 10 11 0 2 -4 4 -10 4 -5 0 -10
-5 -10 -11z"/>
<path d="M6574 2576 c1 -8 5 -18 8 -22 4 -3 5 1 4 10 -1 8 -5 18 -8 22 -4 3
-5 -1 -4 -10z"/>
<path d="M79 2553 c-13 -16 -12 -17 4 -4 9 7 17 15 17 17 0 8 -8 3 -21 -13z"/>
<path d="M156 2543 c-6 -14 -5 -15 5 -6 7 7 10 15 7 18 -3 3 -9 -2 -12 -12z"/>
<path d="M84 2522 c4 -3 14 -7 22 -8 9 -1 13 0 10 4 -4 3 -14 7 -22 8 -9 1
-13 0 -10 -4z"/>
<path d="M120 2495 c-7 -8 -17 -12 -23 -8 -6 4 -7 1 -3 -6 6 -9 13 -8 27 5 10
9 19 19 19 21 0 7 -8 2 -20 -12z"/>
<path d="M177 2479 c4 -13 8 -18 11 -10 2 7 -1 18 -6 23 -8 8 -9 4 -5 -13z"/>
<path d="M75 2440 c-3 -5 -1 -10 4 -10 6 0 11 5 11 10 0 6 -2 10 -4 10 -3 0
-8 -4 -11 -10z"/>
<path d="M159 2448 c-5 -18 -6 -38 -1 -34 7 8 12 36 6 36 -2 0 -4 -1 -5 -2z"/>
<path d="M190 2427 c-12 -21 -12 -21 6 -7 10 8 20 15 22 16 2 1 -1 4 -5 7 -5
3 -15 -4 -23 -16z"/>
<path d="M176 2338 c3 -5 10 -6 15 -3 13 9 11 12 -6 12 -8 0 -12 -4 -9 -9z"/>
<path d="M406 2062 c-3 -5 1 -9 9 -9 8 0 12 4 9 9 -3 4 -7 8 -9 8 -2 0 -6 -4
-9 -8z"/>
<path d="M1046 1358 c3 -5 9 -7 12 -4 3 3 12 0 21 -6 13 -10 14 -10 4 2 -15
16 -46 23 -37 8z"/>
<path d="M1013 1345 c0 -8 4 -12 9 -9 5 3 6 10 3 15 -9 13 -12 11 -12 -6z"/>
<path d="M1095 1330 c-4 -6 -12 -7 -18 -4 -7 4 -8 3 -4 -1 13 -15 34 -14 34 1
0 17 -4 18 -12 4z"/>
<path d="M1158 1317 c-3 -19 -2 -25 4 -19 6 6 8 18 6 28 -3 14 -5 12 -10 -9z"/>
<path d="M1190 1314 c0 -6 6 -17 14 -24 8 -6 12 -19 9 -27 -4 -11 -2 -14 5 -9
6 3 10 15 9 26 -1 10 -4 17 -8 14 -4 -2 -12 4 -18 13 -6 10 -11 13 -11 7z"/>
<path d="M1115 1301 c-3 -5 -2 -12 3 -15 5 -3 9 1 9 9 0 17 -3 19 -12 6z"/>
<path d="M1160 1255 c-7 -8 -17 -12 -23 -8 -6 4 -7 1 -3 -6 6 -9 13 -8 27 5
10 9 19 19 19 21 0 7 -8 2 -20 -12z"/>
<path d="M1250 1249 c0 -5 -5 -7 -11 -3 -8 4 -8 0 0 -15 7 -11 14 -21 17 -21
3 0 2 5 -1 10 -4 6 -1 17 5 25 9 11 9 15 1 15 -6 0 -11 -5 -11 -11z"/>
<path d="M1285 1253 c6 -4 11 -17 13 -28 2 -19 2 -19 -12 -1 -14 18 -15 18
-13 -2 0 -11 5 -20 10 -19 5 1 11 -3 14 -10 3 -7 -4 -10 -19 -7 -21 4 -21 4
-3 -5 24 -10 38 -4 31 14 -3 8 2 19 10 26 15 12 16 2 2 -50 -1 -7 2 -16 9 -18
8 -3 11 5 8 27 -3 28 -1 30 18 26 12 -3 16 -3 9 0 -6 3 -9 11 -6 16 4 6 2 8
-4 4 -6 -3 -13 -2 -17 3 -3 6 -12 8 -21 4 -9 -3 -14 0 -12 7 2 7 -4 15 -12 17
-9 3 -11 1 -5 -4z"/>
<path d="M1195 1231 c-3 -5 -2 -12 3 -15 5 -3 9 1 9 9 0 17 -3 19 -12 6z"/>
<path d="M1113 1215 c0 -8 4 -12 9 -9 5 3 6 10 3 15 -9 13 -12 11 -12 -6z"/>
<path d="M1150 1200 c0 -5 5 -10 11 -10 5 0 7 5 4 10 -3 6 -8 10 -11 10 -2 0
-4 -4 -4 -10z"/>
<path d="M1377 1194 c-4 -4 -2 -13 4 -21 16 -19 3 -16 -17 5 -17 16 -18 16
-11 -2 4 -10 2 -25 -4 -32 -13 -16 -2 -37 13 -28 8 5 9 1 4 -12 -5 -14 -4 -16
5 -7 13 13 3 37 -12 28 -5 -4 -9 -2 -9 3 0 19 14 21 31 6 19 -17 44 -10 33 8
-5 8 -1 9 10 5 9 -4 15 -3 11 2 -3 5 0 12 5 14 6 3 5 4 -2 3 -7 -2 -22 5 -34
15 -11 11 -23 16 -27 13z m30 -45 c-2 -23 -10 -24 -27 -4 -11 13 -10 14 4 9
19 -7 21 6 4 26 -11 12 -10 12 4 1 9 -7 16 -21 15 -32z"/>
<path d="M1213 1165 c0 -8 4 -12 9 -9 5 3 6 10 3 15 -9 13 -12 11 -12 -6z"/>
<path d="M6036 1167 c3 -10 9 -15 12 -12 3 3 0 11 -7 18 -10 9 -11 8 -5 -6z"/>
<path d="M1277 1154 c-4 -4 -7 -11 -7 -15 0 -9 27 -5 37 6 4 4 3 5 -4 2 -6 -4
-13 -2 -15 4 -2 5 -7 7 -11 3z"/>
<path d="M5957 1149 c7 -7 15 -10 18 -7 3 3 -2 9 -12 12 -14 6 -15 5 -6 -5z"/>
<path d="M5930 1140 c0 -5 5 -10 11 -10 5 0 7 5 4 10 -3 6 -8 10 -11 10 -2 0
-4 -4 -4 -10z"/>
<path d="M1306 1125 c-11 -8 -15 -15 -9 -15 6 0 16 7 23 15 16 19 11 19 -14 0z"/>
<path d="M5870 1119 c0 -5 5 -7 10 -4 6 3 10 8 10 11 0 2 -4 4 -10 4 -5 0 -10
-5 -10 -11z"/>
<path d="M5973 1113 c0 -9 4 -10 14 -2 7 6 13 12 13 14 0 1 -6 2 -13 2 -8 0
-14 -6 -14 -14z"/>
<path d="M1324 1099 c-4 -7 -3 -9 4 -5 5 3 13 0 15 -6 4 -9 6 -10 6 -1 1 17
-16 25 -25 12z"/>
<path d="M1235 1089 c-4 -6 -5 -12 -2 -15 2 -3 7 2 10 11 7 17 1 20 -8 4z"/>
<path d="M5910 1082 c0 -6 9 -12 20 -15 11 -3 20 -3 20 -1 0 2 -9 8 -20 14
-11 6 -20 7 -20 2z"/>
<path d="M1315 1071 c-3 -5 -2 -12 3 -15 5 -3 9 1 9 9 0 17 -3 19 -12 6z"/>
<path d="M5873 1057 c0 -12 1 -16 4 -9 6 15 24 16 21 1 -2 -6 3 -13 10 -14 7
-2 8 -1 2 2 -5 2 -8 9 -5 13 3 5 -3 13 -13 19 -15 8 -18 6 -19 -12z"/>
<path d="M1254 1056 c1 -8 5 -18 8 -22 4 -3 5 1 4 10 -1 8 -5 18 -8 22 -4 3
-5 -1 -4 -10z"/>
<path d="M5990 1059 c0 -5 5 -7 10 -4 6 3 10 8 10 11 0 2 -4 4 -10 4 -5 0 -10
-5 -10 -11z"/>
<path d="M1410 1056 c0 -2 7 -7 16 -10 8 -3 12 -2 9 4 -6 10 -25 14 -25 6z"/>
<path d="M1397 1039 c7 -7 15 -10 18 -7 3 3 -2 9 -12 12 -14 6 -15 5 -6 -5z"/>
<path d="M5936 1033 c-6 -14 -5 -15 5 -6 7 7 10 15 7 18 -3 3 -9 -2 -12 -12z"/>
<path d="M1387 1009 c4 -13 8 -18 11 -10 2 7 -1 18 -6 23 -8 8 -9 4 -5 -13z"/>
<path d="M5870 1020 c0 -5 5 -10 10 -10 6 0 10 5 10 10 0 6 -4 10 -10 10 -5 0
-10 -4 -10 -10z"/>
<path d="M1583 1005 c0 -8 4 -15 8 -15 4 0 16 -3 26 -7 13 -4 12 -1 -6 15 -29
26 -28 26 -28 7z"/>
<path d="M5893 997 c-4 -6 -1 -7 7 -2 10 6 12 4 6 -10 -5 -15 -4 -16 9 -5 8 7
15 16 15 20 0 10 -30 8 -37 -3z"/>
<path d="M1430 980 c0 -5 5 -10 10 -10 6 0 10 5 10 10 0 6 -4 10 -10 10 -5 0
-10 -4 -10 -10z"/>
<path d="M5860 966 c0 -2 9 -6 20 -9 11 -3 18 -1 14 4 -5 9 -34 13 -34 5z"/>
<path d="M1433 945 c0 -8 4 -15 9 -15 4 0 8 4 8 9 0 6 -4 12 -8 15 -5 3 -9 -1
-9 -9z"/>
<path d="M1470 950 c8 -5 20 -10 25 -10 6 0 3 5 -5 10 -8 5 -19 10 -25 10 -5
0 -3 -5 5 -10z"/>
<path d="M5837 953 c-10 -9 -9 -23 1 -23 5 0 9 7 9 15 0 17 -1 18 -10 8z"/>
<path d="M1395 940 c-3 -5 -1 -10 4 -10 6 0 11 5 11 10 0 6 -2 10 -4 10 -3 0
-8 -4 -11 -10z"/>
<path d="M5930 939 c0 -5 5 -7 10 -4 6 3 10 8 10 11 0 2 -4 4 -10 4 -5 0 -10
-5 -10 -11z"/>
<path d="M5864 925 c-19 -15 -19 -15 1 -8 18 6 19 5 5 -13 -11 -15 -11 -16 0
-7 11 11 24 43 16 43 -1 0 -11 -7 -22 -15z"/>
<path d="M1480 920 c-9 -6 -10 -10 -3 -10 6 0 15 5 18 10 8 12 4 12 -15 0z"/>
<path d="M1666 913 c-6 -14 -5 -15 5 -6 7 7 10 15 7 18 -3 3 -9 -2 -12 -12z"/>
<path d="M1415 900 c3 -5 8 -10 11 -10 2 0 4 5 4 10 0 6 -5 10 -11 10 -5 0 -7
-4 -4 -10z"/>
<path d="M5993 885 c0 -8 4 -12 9 -9 5 3 6 10 3 15 -9 13 -12 11 -12 -6z"/>
<path d="M1700 867 c-12 -21 -12 -21 6 -7 10 8 20 15 22 16 2 1 -1 4 -5 7 -5
3 -15 -4 -23 -16z"/>
<path d="M5827 872 c5 -11 3 -13 -7 -7 -9 6 -11 4 -5 -5 6 -10 11 -10 20 3 7
9 14 16 16 14 2 -1 3 0 1 2 -1 3 -9 6 -17 7 -9 1 -11 -4 -8 -14z"/>
<path d="M1506 863 c-6 -14 -5 -15 5 -6 7 7 10 15 7 18 -3 3 -9 -2 -12 -12z"/>
<path d="M1548 837 c-3 -19 -2 -25 4 -19 6 6 8 18 6 28 -3 14 -5 12 -10 -9z"/>
<path d="M5853 847 c0 -8 6 -14 14 -14 9 0 10 4 2 14 -6 7 -12 13 -14 13 -1 0
-2 -6 -2 -13z"/>
<path d="M5807 839 c7 -7 15 -10 18 -7 3 3 -2 9 -12 12 -14 6 -15 5 -6 -5z"/>
<path d="M1746 831 c-4 -6 -12 -8 -18 -5 -7 5 -8 2 -4 -5 5 -7 14 -10 22 -7
17 7 28 -10 13 -20 -8 -5 -9 -3 -4 6 6 9 4 11 -4 5 -19 -11 3 -29 22 -18 14 7
14 11 -2 32 -12 16 -20 20 -25 12z"/>
<path d="M1576 816 c6 -15 4 -17 -6 -11 -9 6 -11 4 -5 -4 5 -9 10 -10 18 -2 8
8 7 14 -2 24 -10 10 -11 8 -5 -7z"/>
<path d="M5776 822 c-2 -4 0 -14 6 -22 8 -12 9 -12 5 2 -3 9 -1 19 6 22 9 3 9
5 0 5 -6 1 -14 -3 -17 -7z"/>
<path d="M1515 811 c-3 -5 -2 -12 3 -15 5 -3 9 1 9 9 0 17 -3 19 -12 6z"/>
<path d="M5713 798 c-13 -6 -23 -15 -23 -20 0 -5 11 -1 25 8 37 24 35 30 -2
12z"/>
<path d="M1590 780 c0 -5 5 -10 10 -10 6 0 10 5 10 10 0 6 -4 10 -10 10 -5 0
-10 -4 -10 -10z"/>
<path d="M1660 779 c0 -5 5 -7 10 -4 6 3 10 8 10 11 0 2 -4 4 -10 4 -5 0 -10
-5 -10 -11z"/>
<path d="M5735 780 c-4 -6 -4 -14 -1 -17 3 -4 6 -1 6 7 0 10 3 10 15 0 13 -11
18 -11 28 0 9 10 9 11 -1 6 -7 -4 -19 -3 -27 4 -10 8 -15 8 -20 0z"/>
<path d="M1625 758 l-20 -21 23 12 c12 6 22 16 22 21 0 13 -2 12 -25 -12z"/>
<path d="M5621 766 c-9 -11 -8 -15 5 -20 21 -8 34 1 27 19 -7 19 -17 19 -32 1z
m24 -6 c3 -5 1 -10 -4 -10 -6 0 -11 5 -11 10 0 6 2 10 4 10 3 0 8 -4 11 -10z"/>
<path d="M5691 753 c-1 -17 16 -25 25 -12 4 7 3 9 -4 5 -5 -3 -13 0 -15 6 -4
9 -6 10 -6 1z"/>
<path d="M1835 727 c1 -12 6 -21 11 -20 15 3 15 19 1 31 -11 9 -13 7 -12 -11z"/>
<path d="M5435 739 c-3 -4 2 -6 10 -5 21 3 28 13 10 13 -9 0 -18 -4 -20 -8z"/>
<path d="M5673 720 c0 -23 3 -28 9 -16 5 9 5 23 0 32 -6 12 -9 7 -9 -16z"/>
<path d="M1642 724 c10 -10 20 -16 22 -13 3 3 -5 11 -17 18 -21 13 -21 12 -5
-5z"/>
<path d="M5279 707 c-15 -19 -18 -20 -34 -7 -17 14 -17 14 -4 -7 11 -19 16
-20 29 -10 8 7 25 12 38 11 12 -1 25 3 29 9 4 6 -2 8 -15 5 -12 -4 -20 -2 -17
2 12 19 -11 16 -26 -3z"/>
<path d="M5716 713 c-6 -14 -5 -15 5 -6 7 7 10 15 7 18 -3 3 -9 -2 -12 -12z"/>
<path d="M5122 684 c-11 -12 -16 -13 -30 -2 -12 10 -14 10 -8 1 4 -8 2 -13 -5
-13 -16 0 -1 -15 14 -15 7 0 18 5 26 13 11 10 16 10 29 0 13 -12 14 -10 3 10
-14 26 -12 25 -29 6z"/>
<path d="M5187 685 c3 -8 9 -12 14 -9 12 7 11 11 -5 17 -10 4 -13 1 -9 -8z"/>
<path d="M5590 690 c0 -5 5 -10 10 -10 6 0 10 5 10 10 0 6 -4 10 -10 10 -5 0
-10 -4 -10 -10z"/>
<path d="M5633 681 c0 -11 5 -18 9 -15 4 3 5 11 1 19 -7 21 -12 19 -10 -4z"/>
<path d="M5694 686 c1 -8 5 -18 8 -22 4 -3 5 1 4 10 -1 8 -5 18 -8 22 -4 3 -5
-1 -4 -10z"/>
<path d="M1840 681 c0 -10 39 -46 43 -40 2 2 -7 14 -20 26 -13 12 -23 19 -23
14z"/>
<path d="M5545 680 c3 -5 11 -10 16 -10 6 0 7 5 4 10 -3 6 -11 10 -16 10 -6 0
-7 -4 -4 -10z"/>
<path d="M1630 676 c0 -2 8 -10 18 -17 15 -13 16 -12 3 4 -13 16 -21 21 -21
13z"/>
<path d="M1566 658 c3 -5 10 -6 15 -3 13 9 11 12 -6 12 -8 0 -12 -4 -9 -9z"/>
<path d="M1682 662 c-9 -6 -7 -13 10 -27 13 -11 17 -13 11 -5 -16 18 -17 34
-1 24 7 -4 8 -3 4 4 -8 14 -8 14 -24 4z"/>
<path d="M5036 661 c-3 -5 1 -11 9 -14 9 -4 12 -1 8 9 -6 16 -10 17 -17 5z"/>
<path d="M5524 659 c-5 -8 -3 -9 6 -4 10 6 12 4 7 -8 -3 -9 -3 -18 1 -21 4 -3
8 4 9 14 2 23 -13 35 -23 19z"/>
<path d="M5575 661 c-6 -11 13 -26 22 -17 4 3 1 6 -6 6 -7 0 -9 5 -6 10 3 6 4
10 1 10 -3 0 -7 -4 -11 -9z"/>
<path d="M5735 660 c3 -5 8 -10 11 -10 2 0 4 5 4 10 0 6 -5 10 -11 10 -5 0 -7
-4 -4 -10z"/>
<path d="M4867 636 c-14 -20 -14 -24 -2 -22 25 4 41 24 28 37 -7 7 -15 3 -26
-15z"/>
<path d="M5490 645 c0 -8 2 -15 4 -15 2 0 6 7 10 15 3 8 1 15 -4 15 -6 0 -10
-7 -10 -15z"/>
<path d="M5656 647 c3 -10 9 -15 12 -12 3 3 0 11 -7 18 -10 9 -11 8 -5 -6z"/>
<path d="M1595 640 c-3 -5 -1 -10 4 -10 6 0 11 5 11 10 0 6 -2 10 -4 10 -3 0
-8 -4 -11 -10z"/>
<path d="M5690 640 c0 -5 5 -10 11 -10 5 0 7 5 4 10 -3 6 -8 10 -11 10 -2 0
-4 -4 -4 -10z"/>
<path d="M4766 624 c-11 -8 -16 -14 -12 -14 5 0 4 -6 -2 -13 -9 -10 -6 -13 13
-13 13 0 22 2 20 5 -3 2 3 13 12 24 10 11 13 17 6 14 -6 -4 -13 -3 -15 2 -1 5
-12 3 -22 -5z m24 -8 c0 -2 -8 -10 -17 -17 -16 -13 -17 -12 -4 4 13 16 21 21
21 13z"/>
<path d="M5430 631 c0 -6 4 -13 10 -16 6 -3 7 1 4 9 -7 18 -14 21 -14 7z"/>
<path d="M1739 628 c-8 -24 -3 -44 12 -44 9 0 15 6 12 13 -3 7 -9 13 -15 13
-5 0 -6 5 -3 10 3 6 4 10 1 10 -3 0 -6 -1 -7 -2z"/>
<path d="M5296 614 c-8 -20 14 -38 28 -24 7 7 5 16 -6 26 -14 14 -16 14 -22
-2z m24 -14 c0 -5 -2 -10 -4 -10 -3 0 -8 5 -11 10 -3 6 -1 10 4 10 6 0 11 -4
11 -10z"/>
<path d="M4682 611 c-11 -6 -11 -10 0 -19 16 -13 44 1 34 17 -8 13 -16 14 -34
2z m28 -5 c0 -3 -4 -8 -10 -11 -5 -3 -10 -1 -10 4 0 6 5 11 10 11 6 0 10 -2
10 -4z"/>
<path d="M5468 613 c7 -3 16 -2 19 1 4 3 -2 6 -13 5 -11 0 -14 -3 -6 -6z"/>
<path d="M5510 613 c5 -2 8 -9 4 -14 -3 -5 0 -9 6 -9 15 0 7 23 -8 26 -7 1 -8
0 -2 -3z"/>
<path d="M4565 591 c-8 -14 10 -22 30 -15 13 5 14 8 3 15 -17 11 -26 11 -33 0z"/>
<path d="M5397 589 c7 -7 15 -10 18 -7 3 3 -2 9 -12 12 -14 6 -15 5 -6 -5z"/>
<path d="M5335 581 c-3 -5 0 -13 6 -17 8 -5 9 -3 4 6 -6 10 -4 12 9 7 10 -4
15 -3 11 3 -8 13 -22 13 -30 1z"/>
<path d="M5435 583 c3 -3 -3 -16 -12 -27 -14 -15 -14 -18 -2 -8 9 6 18 9 22 6
3 -3 4 1 3 10 -1 8 -5 18 -9 21 -4 3 -5 2 -2 -2z"/>
<path d="M1946 572 c-3 -5 1 -9 9 -9 8 0 15 4 15 9 0 4 -4 8 -9 8 -6 0 -12 -4
-15 -8z"/>
<path d="M5241 564 c0 -11 3 -14 6 -6 3 7 2 16 -1 19 -3 4 -6 -2 -5 -13z"/>
<path d="M5496 567 c3 -10 9 -15 12 -12 3 3 0 11 -7 18 -10 9 -11 8 -5 -6z"/>
<path d="M1755 561 c3 -2 -1 -11 -7 -20 -10 -12 -7 -12 8 2 11 9 24 14 27 10
4 -3 7 -1 7 5 0 6 -9 10 -20 9 -10 -1 -17 -3 -15 -6z"/>
<path d="M4923 541 c-8 -12 -8 -22 -1 -32 8 -11 9 -11 5 2 -3 9 0 22 6 28 6 6
9 13 6 15 -3 3 -10 -3 -16 -13z"/>
<path d="M5188 553 c7 -3 16 -2 19 1 4 3 -2 6 -13 5 -11 0 -14 -3 -6 -6z"/>
<path d="M5276 552 c-2 -4 4 -8 14 -8 10 0 16 4 14 8 -3 4 -9 8 -14 8 -5 0
-11 -4 -14 -8z"/>
<path d="M5093 534 c-3 -8 -2 -19 3 -24 5 -5 9 1 9 16 0 28 -3 30 -12 8z"/>
<path d="M1790 534 c0 -1 6 -7 14 -13 10 -9 15 -8 19 2 3 8 -3 13 -14 13 -11
0 -19 -1 -19 -2z"/>
<path d="M5253 526 c0 -15 22 -15 34 0 4 5 4 6 -1 2 -5 -4 -14 -3 -21 2 -8 7
-12 5 -12 -4z"/>
<path d="M5375 531 c-3 -5 -2 -12 3 -15 5 -3 9 1 9 9 0 17 -3 19 -12 6z"/>
<path d="M4880 519 c0 -5 5 -7 10 -4 6 3 10 8 10 11 0 2 -4 4 -10 4 -5 0 -10
-5 -10 -11z"/>
<path d="M4940 526 c0 -2 7 -7 16 -10 8 -3 12 -2 9 4 -6 10 -25 14 -25 6z"/>
<path d="M5029 517 c7 -7 14 -8 21 -1 6 6 2 10 -12 11 -16 2 -18 -1 -9 -10z"/>
<path d="M5118 523 c7 -3 16 -2 19 1 4 3 -2 6 -13 5 -11 0 -14 -3 -6 -6z"/>
<path d="M5417 515 c-4 -8 -3 -16 1 -19 4 -3 9 4 9 15 2 23 -3 25 -10 4z"/>
<path d="M5149 503 c-13 -16 -12 -17 4 -4 16 13 21 21 13 21 -2 0 -10 -8 -17
-17z"/>
<path d="M4896 502 c-2 -4 -1 -14 3 -21 6 -9 11 -10 15 -2 4 6 2 11 -4 11 -6
0 -8 5 -5 10 3 6 4 10 1 10 -3 0 -7 -4 -10 -8z"/>
<path d="M5015 503 c3 -3 0 -11 -5 -18 -7 -8 -5 -12 4 -12 14 0 16 22 3 32 -4
3 -5 2 -2 -2z"/>
<path d="M1822 487 c12 -9 14 -17 7 -24 -6 -6 -5 -10 5 -10 20 0 13 27 -10 39
-17 9 -18 8 -2 -5z"/>
<path d="M4634 489 c-4 -8 -3 -10 4 -5 6 4 21 -3 33 -15 12 -12 20 -16 17 -9
-2 7 -14 20 -25 27 -16 11 -23 11 -29 2z"/>
<path d="M4955 490 c-3 -6 1 -7 9 -4 18 7 21 14 7 14 -6 0 -13 -4 -16 -10z"/>
<path d="M1790 481 c0 -6 4 -13 10 -16 6 -3 7 1 4 9 -7 18 -14 21 -14 7z"/>
<path d="M1865 480 c-3 -6 1 -7 9 -4 10 4 20 -3 28 -21 10 -22 13 -24 21 -10
5 9 6 19 3 22 -3 4 -6 0 -6 -8 0 -8 -6 -4 -16 9 -16 24 -29 28 -39 12z"/>
<path d="M2026 478 c3 -5 10 -6 15 -3 13 9 11 12 -6 12 -8 0 -12 -4 -9 -9z"/>
<path d="M4359 488 c-7 -25 -7 -48 0 -43 6 3 9 14 8 25 -1 17 -5 26 -8 18z"/>
<path d="M4755 480 c-3 -5 -1 -10 4 -10 6 0 11 5 11 10 0 6 -2 10 -4 10 -3 0
-8 -4 -11 -10z"/>
<path d="M5516 482 c-3 -5 1 -9 9 -9 8 0 12 4 9 9 -3 4 -7 8 -9 8 -2 0 -6 -4
-9 -8z"/>
<path d="M4616 462 c-2 -4 0 -14 6 -22 8 -12 9 -12 4 3 -4 12 0 17 16 17 18 0
19 -2 7 -17 -13 -16 -12 -17 3 -4 10 7 15 17 12 22 -7 11 -41 12 -48 1z"/>
<path d="M4788 463 c6 -2 18 -2 25 0 6 3 1 5 -13 5 -14 0 -19 -2 -12 -5z"/>
<path d="M4919 453 c-13 -16 -12 -17 4 -4 16 13 21 21 13 21 -2 0 -10 -8 -17
-17z"/>
<path d="M4987 459 c7 -7 15 -10 18 -7 3 3 -2 9 -12 12 -14 6 -15 5 -6 -5z"/>
<path d="M5155 459 c-3 -4 2 -6 10 -5 21 3 28 13 10 13 -9 0 -18 -4 -20 -8z"/>
<path d="M5255 461 c-3 -5 -2 -12 3 -15 5 -3 9 1 9 9 0 17 -3 19 -12 6z"/>
<path d="M1868 453 c7 -3 16 -2 19 1 4 3 -2 6 -13 5 -11 0 -14 -3 -6 -6z"/>
<path d="M2036 447 c3 -10 9 -15 12 -12 3 3 0 11 -7 18 -10 9 -11 8 -5 -6z"/>
<path d="M4510 451 c0 -7 -4 -9 -10 -6 -6 4 -7 -1 -3 -11 6 -15 7 -15 15 1 6
9 7 19 4 22 -3 4 -6 1 -6 -6z"/>
<path d="M5036 447 c3 -10 9 -15 12 -12 3 3 0 11 -7 18 -10 9 -11 8 -5 -6z"/>
<path d="M4706 438 c3 -5 9 -7 12 -4 3 3 12 0 21 -6 13 -10 14 -10 4 2 -15 16
-46 23 -37 8z"/>
<path d="M4773 433 c0 -9 4 -10 13 -2 7 6 19 7 25 3 7 -4 9 -3 5 4 -9 15 -43
11 -43 -5z"/>
<path d="M5330 441 c0 -6 4 -13 10 -16 6 -3 7 1 4 9 -7 18 -14 21 -14 7z"/>
<path d="M4472 426 c7 -8 15 -12 17 -11 5 6 -10 25 -20 25 -5 0 -4 -6 3 -14z"/>
<path d="M1873 415 c0 -8 4 -12 9 -9 5 3 6 10 3 15 -9 13 -12 11 -12 -6z"/>
<path d="M4660 420 c-9 -6 -10 -10 -3 -10 6 0 15 5 18 10 8 12 4 12 -15 0z"/>
<path d="M4890 419 c0 -5 5 -7 10 -4 6 3 10 8 10 11 0 2 -4 4 -10 4 -5 0 -10
-5 -10 -11z"/>
<path d="M4930 419 c0 -5 5 -7 10 -4 6 3 10 8 10 11 0 2 -4 4 -10 4 -5 0 -10
-5 -10 -11z"/>
<path d="M4986 422 c-3 -5 1 -9 9 -9 8 0 12 4 9 9 -3 4 -7 8 -9 8 -2 0 -6 -4
-9 -8z"/>
<path d="M4615 410 c-4 -6 -10 -8 -14 -6 -4 3 -8 -1 -8 -9 0 -13 4 -12 19 2
18 16 22 23 14 23 -3 0 -8 -5 -11 -10z"/>
<path d="M4215 400 c-3 -5 -1 -10 4 -10 6 0 11 5 11 10 0 6 -2 10 -4 10 -3 0
-8 -4 -11 -10z"/>
<path d="M4245 400 c-3 -6 1 -7 9 -4 18 7 21 14 7 14 -6 0 -13 -4 -16 -10z"/>
<path d="M4386 401 c-4 -5 3 -7 14 -4 23 6 26 13 6 13 -8 0 -17 -4 -20 -9z"/>
<path d="M4506 398 c3 -5 10 -6 15 -3 13 9 11 12 -6 12 -8 0 -12 -4 -9 -9z"/>
<path d="M4775 400 c-3 -5 -1 -10 4 -10 6 0 11 5 11 10 0 6 -2 10 -4 10 -3 0
-8 -4 -11 -10z"/>
<path d="M4846 402 c-3 -5 1 -9 9 -9 8 0 12 4 9 9 -3 4 -7 8 -9 8 -2 0 -6 -4
-9 -8z"/>
<path d="M4348 393 c7 -3 16 -2 19 1 4 3 -2 6 -13 5 -11 0 -14 -3 -6 -6z"/>
<path d="M4433 387 c0 -8 6 -14 14 -14 9 0 10 4 2 14 -6 7 -12 13 -14 13 -1 0
-2 -6 -2 -13z"/>
<path d="M1950 370 c-6 -11 -8 -20 -6 -20 3 0 10 9 16 20 6 11 8 20 6 20 -3 0
-10 -9 -16 -20z"/>
<path d="M4197 379 c7 -7 15 -10 18 -7 3 3 -2 9 -12 12 -14 6 -15 5 -6 -5z"/>
<path d="M4255 380 c-3 -6 1 -7 9 -4 18 7 21 14 7 14 -6 0 -13 -4 -16 -10z"/>
<path d="M4310 381 c0 -6 4 -12 8 -15 5 -3 9 1 9 9 0 8 -4 15 -9 15 -4 0 -8
-4 -8 -9z"/>
<path d="M4396 382 c-3 -5 1 -9 9 -9 8 0 12 4 9 9 -3 4 -7 8 -9 8 -2 0 -6 -4
-9 -8z"/>
<path d="M1893 366 c0 -8 5 -14 11 -13 6 1 10 -4 8 -11 -1 -8 2 -11 8 -7 8 5
6 13 -6 26 -21 23 -21 23 -21 5z"/>
<path d="M4170 366 c0 -2 7 -7 16 -10 8 -3 12 -2 9 4 -6 10 -25 14 -25 6z"/>
<path d="M4260 360 c-9 -6 -10 -10 -3 -10 6 0 15 5 18 10 8 12 4 12 -15 0z"/>
<path d="M4533 329 c-2 -23 3 -25 10 -4 4 8 3 16 -1 19 -4 3 -9 -4 -9 -15z"/>
<path d="M1935 329 c-4 -6 -5 -12 -2 -15 2 -3 7 2 10 11 7 17 1 20 -8 4z"/>
<path d="M4074 318 c-4 -7 -4 -10 1 -6 4 4 15 2 24 -5 14 -11 14 -10 2 6 -16
20 -18 21 -27 5z"/>
<path d="M4356 315 c-9 -26 -7 -32 5 -12 6 10 9 21 6 23 -2 3 -7 -2 -11 -11z"/>
<path d="M4433 315 c0 -8 4 -12 9 -9 5 3 6 10 3 15 -9 13 -12 11 -12 -6z"/>
<path d="M1953 307 c0 -8 6 -14 14 -14 9 0 10 4 2 14 -6 7 -12 13 -14 13 -1 0
-2 -6 -2 -13z"/>
<path d="M1998 293 c7 -3 16 -2 19 1 4 3 -2 6 -13 5 -11 0 -14 -3 -6 -6z"/>
<path d="M2038 293 c7 -3 16 -2 19 1 4 3 -2 6 -13 5 -11 0 -14 -3 -6 -6z"/>
<path d="M4267 279 c7 -7 15 -10 18 -7 3 3 -2 9 -12 12 -14 6 -15 5 -6 -5z"/>
<path d="M2070 251 c0 -14 29 -21 36 -9 4 7 3 8 -4 4 -7 -4 -12 -2 -12 3 0 6
-4 11 -10 11 -5 0 -10 -4 -10 -9z"/>
<path d="M2587 235 c-4 -8 -3 -16 1 -19 4 -3 9 4 9 15 2 23 -3 25 -10 4z"/>
<path d="M2635 230 c-3 -5 -5 -10 -3 -11 33 -8 38 -7 27 7 -14 17 -16 17 -24
4z"/>
<path d="M2456 219 c4 -8 30 -6 38 2 3 3 -5 5 -19 5 -13 0 -22 -3 -19 -7z"/>
<path d="M2100 200 c-8 -5 -10 -10 -5 -10 6 0 17 5 25 10 8 5 11 10 5 10 -5 0
-17 -5 -25 -10z"/>
<path d="M2156 202 c-3 -5 1 -9 9 -9 8 0 15 4 15 9 0 4 -4 8 -9 8 -6 0 -12 -4
-15 -8z"/>
<path d="M2016 182 c-3 -5 1 -9 9 -9 8 0 12 4 9 9 -3 4 -7 8 -9 8 -2 0 -6 -4
-9 -8z"/>
<path d="M2706 173 c-12 -12 -6 -25 9 -20 8 4 17 2 20 -3 4 -6 -2 -10 -11 -10
-10 0 -15 -3 -11 -6 11 -12 37 5 31 20 -6 16 -29 28 -38 19z"/>
<path d="M1986 162 c-3 -5 1 -9 9 -9 8 0 12 4 9 9 -3 4 -7 8 -9 8 -2 0 -6 -4
-9 -8z"/>
<path d="M2220 160 c-18 -12 -2 -12 25 0 13 6 15 9 5 9 -8 0 -22 -4 -30 -9z"/>
<path d="M2665 150 c0 -8 7 -14 14 -12 9 2 11 -3 7 -15 -6 -14 -4 -15 5 -6 12
12 3 37 -11 28 -5 -3 -10 0 -13 7 -2 7 -3 6 -2 -2z"/>
<path d="M2154 135 c0 -13 3 -22 7 -19 8 4 6 30 -2 38 -3 3 -5 -5 -5 -19z"/>
<path d="M2115 140 c3 -5 8 -10 11 -10 2 0 4 5 4 10 0 6 -5 10 -11 10 -5 0 -7
-4 -4 -10z"/>
<path d="M2600 131 c0 -10 19 -25 25 -20 1 2 -3 10 -11 17 -8 7 -14 8 -14 3z"/>
<path d="M2755 130 c-3 -6 1 -7 9 -4 18 7 21 14 7 14 -6 0 -13 -4 -16 -10z"/>
<path d="M2327 119 c7 -7 15 -10 18 -7 3 3 -2 9 -12 12 -14 6 -15 5 -6 -5z"/>
<path d="M2380 120 c8 -5 22 -9 30 -9 10 0 8 3 -5 9 -27 12 -43 12 -25 0z"/>
<path d="M2484 115 c-4 -8 -10 -12 -15 -9 -14 8 -23 -26 -11 -38 8 -8 9 -5 5
10 -4 17 -1 21 16 17 11 -2 24 1 27 7 4 7 2 8 -4 4 -7 -4 -12 -3 -12 3 0 5 6
12 13 14 9 4 9 6 -1 6 -7 1 -15 -6 -18 -14z"/>
<path d="M2652 116 c7 -8 15 -12 17 -11 5 6 -10 25 -20 25 -5 0 -4 -6 3 -14z"/>
<path d="M2113 95 c0 -8 4 -12 9 -9 5 3 6 10 3 15 -9 13 -12 11 -12 -6z"/>
<path d="M2268 103 c6 -2 18 -2 25 0 6 3 1 5 -13 5 -14 0 -19 -2 -12 -5z"/>
<path d="M2590 100 c0 -6 7 -10 15 -10 8 0 15 2 15 4 0 2 -7 6 -15 10 -8 3
-15 1 -15 -4z"/>
<path d="M2635 100 c-3 -5 -1 -10 4 -10 6 0 11 5 11 10 0 6 -2 10 -4 10 -3 0
-8 -4 -11 -10z"/>
<path d="M2748 103 c6 -3 10 -9 6 -14 -8 -14 2 -11 14 4 8 10 6 13 -11 14 -12
0 -16 -1 -9 -4z"/>
<path d="M3095 100 c3 -5 8 -10 11 -10 2 0 4 5 4 10 0 6 -5 10 -11 10 -5 0 -7
-4 -4 -10z"/>
<path d="M3126 102 c-3 -5 1 -9 9 -9 8 0 12 4 9 9 -3 4 -7 8 -9 8 -2 0 -6 -4
-9 -8z"/>
<path d="M3235 101 c-3 -5 -2 -12 3 -15 5 -3 9 1 9 9 0 17 -3 19 -12 6z"/>
<path d="M2149 83 c-13 -16 -12 -17 4 -4 16 13 21 21 13 21 -2 0 -10 -8 -17
-17z"/>
<path d="M2296 73 c-6 -14 -5 -15 5 -6 7 7 10 15 7 18 -3 3 -9 -2 -12 -12z"/>
<path d="M2355 80 c-3 -5 -1 -10 4 -10 6 0 11 5 11 10 0 6 -2 10 -4 10 -3 0
-8 -4 -11 -10z"/>
<path d="M2513 75 c0 -8 4 -12 9 -9 5 3 6 10 3 15 -9 13 -12 11 -12 -6z"/>
<path d="M2669 77 c6 -8 7 -18 3 -22 -4 -5 -1 -5 6 -1 10 6 10 11 1 22 -6 8
-14 14 -16 14 -3 0 0 -6 6 -13z"/>
<path d="M2213 65 c0 -8 4 -12 9 -9 5 3 6 10 3 15 -9 13 -12 11 -12 -6z"/>
<path d="M2399 78 c-5 -9 -4 -56 1 -52 5 6 8 54 3 54 -2 0 -4 -1 -4 -2z"/>
<path d="M2535 50 c-4 -6 -11 -7 -17 -4 -7 4 -8 2 -4 -5 6 -9 11 -9 22 0 14
11 18 19 10 19 -3 0 -8 -5 -11 -10z"/>
<path d="M2614 35 c0 -13 3 -22 7 -19 8 4 6 30 -2 38 -3 3 -5 -5 -5 -19z"/>
<path d="M2155 40 c-3 -5 -1 -10 4 -10 6 0 11 5 11 10 0 6 -2 10 -4 10 -3 0
-8 -4 -11 -10z"/>
<path d="M2426 38 c3 -4 9 -8 15 -8 5 0 9 4 9 8 0 5 -7 9 -15 9 -8 0 -12 -4
-9 -9z"/>
<path d="M2467 39 c7 -7 15 -10 18 -7 3 3 -2 9 -12 12 -14 6 -15 5 -6 -5z"/>
<path d="M2946 42 c-3 -5 1 -9 9 -9 8 0 12 4 9 9 -3 4 -7 8 -9 8 -2 0 -6 -4
-9 -8z"/>
<path d="M2575 31 c-3 -5 -2 -12 3 -15 5 -3 9 1 9 9 0 17 -3 19 -12 6z"/>
</g>
</svg>
