<?xml version="1.0" encoding="UTF-8"?>
<svg width="101px" height="99px" viewBox="0 0 101 99" version="1.1" xmlns="http://www.w3.org/2000/svg" xmlns:xlink="http://www.w3.org/1999/xlink">
    <title>Untitled</title>
    <g id="Page-1" stroke="none" stroke-width="1" fill="none" fill-rule="evenodd">
        <g id="Logo-1.E">
            <path d="M50.5,12.2850913 L84.4580034,30.8980619 L84.4580034,68.1019381 L50.5,86.7149087 L16.5419966,68.1019381 L16.5419966,30.8980619 L50.5,12.2850913 Z" id="Polygon" stroke="#413D3D" stroke-width="0.5" fill="#FAFFFF" transform="translate(50.500000, 49.500000) rotate(20.000000) translate(-50.500000, -49.500000) "></path>
            <path d="M50.5,12.2850913 L84.4580034,30.8980619 L84.4580034,68.1019381 L50.5,86.7149087 L16.5419966,68.1019381 L16.5419966,30.8980619 L50.5,12.2850913 Z" id="Polygon" stroke="#333131" stroke-width="0.5" fill="#FFFFFF" transform="translate(50.500000, 49.500000) rotate(10.000000) translate(-50.500000, -49.500000) "></path>
            <path d="M50.5,12.4276369 L84.3330034,30.9720929 L84.3330034,68.0279071 L50.5,86.5723631 L16.6669966,68.0279071 L16.6669966,30.9720929 L50.5,12.4276369 Z" id="Polygon" stroke="#1A1818" stroke-width="0.75" fill="#FFFFFF"></path>
            <g id="Group" transform="translate(29.000000, 31.000000)" fill="#1A1818">
                <text id="RMS" font-family="RalewayRoman-ExtraLight, Raleway" font-size="16" font-weight="300">
                    <tspan x="3" y="15">R</tspan>
                    <tspan x="13.3214355" y="15" font-size="20">M</tspan>
                    <tspan x="30.9602392" y="15">S</tspan>
                </text>
                <text id="ux-dsgn" font-family="RalewayRoman-Regular, Raleway" font-size="12" font-weight="normal">
                    <tspan x="0" y="32">ux dsgn</tspan>
                </text>
            </g>
        </g>
    </g>
</svg>